<?xml version="1.0" encoding="utf-8"?>
<!-- Generator: Adobe Illustrator 21.0.0, SVG Export Plug-In . SVG Version: 6.00 Build 0)  -->
<svg version="1.1" id="Layer_1" xmlns="http://www.w3.org/2000/svg" xmlns:xlink="http://www.w3.org/1999/xlink" x="0px" y="0px"
	 viewBox="0 0 512 512" style="enable-background:new 0 0 512 512;" xml:space="preserve">
<g>
	<path d="M256,0C114.8,0,0,114.8,0,256s114.8,256,256,256s256-114.8,256-256S397.2,0,256,0z M256,39.4
		c119.9,0,216.6,96.8,216.6,216.6S375.9,472.6,256,472.6S39.4,375.9,39.4,256S136.1,39.4,256,39.4z M157.5,98.5
		c-10.9,0-19.7,8.8-19.7,19.7s8.8,19.7,19.7,19.7s19.7-8.8,19.7-19.7S168.4,98.5,157.5,98.5z M137.8,157.5v216.6h39.4V157.5H137.8z
		 M216.6,157.5v19.7v196.9h88.6c59.6,0,108.3-48.7,108.3-108.3s-48.7-108.3-108.3-108.3H216.6z M256,196.9h49.2
		c38.3,0,68.9,30.6,68.9,68.9s-30.6,68.9-68.9,68.9H256V196.9z"/>
</g>
</svg>
