<svg version="1.1" viewBox="0.0 0.0 893.0 552.0" fill="none" stroke="none" stroke-linecap="square" stroke-miterlimit="10" width="893" height="552" xmlns:xlink="http://www.w3.org/1999/xlink" xmlns="http://www.w3.org/2000/svg"><path fill="#ffffff" d="M0 0L893.0 0L893.0 552.0L0 552.0L0 0Z" fill-rule="nonzero"/><path fill="#f4b400" d="M243.8846 191.21317C283.10583 115.51959 361.24847 68.0 446.5 68.0L446.5 296.2Z" fill-rule="nonzero"/><path fill="#db4437" d="M275.53094 447.34503C213.08096 376.7042 200.50623 274.92963 243.8846 191.21317L446.5 296.2Z" fill-rule="nonzero"/><path fill="#4285f4" d="M446.5 68.0C551.52576 68.0 642.98944 139.68309 668.088 241.66577C693.18665 343.64847 645.4381 449.59256 552.40826 498.3353C459.37842 547.07806 345.09326 526.03107 275.53094 447.34503L446.5 296.2Z" fill-rule="nonzero"/><path fill="#666666" d="M32.928123 102.861046L29.5375 102.861046L29.5375 105.62667L33.475 105.62667L33.475 106.47042L28.50625 106.47042L28.50625 98.642296L33.428123 98.642296L33.428123 99.50167L29.5375 99.50167L29.5375 102.017296L32.928123 102.017296L32.928123 102.861046ZM35.2875 100.65792L35.31875 101.392296Q35.990623 100.548546 37.06875 100.548546Q38.9125 100.548546 38.928123 102.62667L38.928123 106.47042L37.928123 106.47042L37.928123 102.62667Q37.928123 102.00167 37.646873 101.704796Q37.365623 101.392296 36.75625 101.392296Q36.2875 101.392296 35.9125 101.65792Q35.553123 101.90792 35.35 102.329796L35.35 106.47042L34.35 106.47042L34.35 100.65792L35.2875 100.65792ZM40.115623 103.517296Q40.115623 102.15792 40.740623 101.361046Q41.365623 100.548546 42.4125 100.548546Q43.475 100.548546 44.06875 101.298546L44.115623 100.65792L45.021873 100.65792L45.021873 106.329796Q45.021873 107.454796 44.35 108.09542Q43.69375 108.75167 42.553123 108.75167Q41.928123 108.75167 41.31875 108.486046Q40.725 108.22042 40.4125 107.75167L40.928123 107.15792Q41.56875 107.954796 42.490623 107.954796Q43.209373 107.954796 43.615623 107.53292Q44.021873 107.12667 44.021873 106.392296L44.021873 105.892296Q43.428123 106.579796 42.396873 106.579796Q41.38125 106.579796 40.740623 105.767296Q40.115623 104.93917 40.115623 103.517296ZM41.115623 103.62667Q41.115623 104.611046 41.521873 105.173546Q41.928123 105.736046 42.646873 105.736046Q43.584373 105.736046 44.021873 104.87667L44.021873 102.22042Q43.56875 101.392296 42.6625 101.392296Q41.928123 101.392296 41.521873 101.954796Q41.115623 102.517296 41.115623 103.62667ZM49.94375 106.47042Q49.85 106.298546 49.803123 105.861046Q49.1 106.579796 48.146873 106.579796Q47.2875 106.579796 46.725 106.09542Q46.178123 105.611046 46.178123 104.861046Q46.178123 103.954796 46.865623 103.454796Q47.56875 102.93917 48.81875 102.93917L49.7875 102.93917L49.7875 102.486046Q49.7875 101.97042 49.475 101.65792Q49.1625 101.34542 48.553123 101.34542Q48.021873 101.34542 47.6625 101.62667Q47.303123 101.892296 47.303123 102.267296L46.303123 102.267296Q46.303123 101.829796 46.615623 101.423546Q46.928123 101.017296 47.44375 100.78292Q47.975 100.548546 48.615623 100.548546Q49.615623 100.548546 50.178123 101.048546Q50.75625 101.548546 50.771873 102.43917L50.771873 105.111046Q50.771873 105.90792 50.975 106.37667L50.975 106.47042L49.94375 106.47042ZM48.2875 105.72042Q48.75625 105.72042 49.178123 105.486046Q49.6 105.236046 49.7875 104.84542L49.7875 103.65792L49.00625 103.65792Q47.178123 103.65792 47.178123 104.72042Q47.178123 105.18917 47.490623 105.454796Q47.803123 105.72042 48.2875 105.72042ZM52.115623 103.517296Q52.115623 102.15792 52.740623 101.361046Q53.365623 100.548546 54.4125 100.548546Q55.475 100.548546 56.06875 101.298546L56.115623 100.65792L57.021873 100.65792L57.021873 106.329796Q57.021873 107.454796 56.35 108.09542Q55.69375 108.75167 54.553123 108.75167Q53.928123 108.75167 53.31875 108.486046Q52.725 108.22042 52.4125 107.75167L52.928123 107.15792Q53.56875 107.954796 54.490623 107.954796Q55.209373 107.954796 55.615623 107.53292Q56.021873 107.12667 56.021873 106.392296L56.021873 105.892296Q55.428123 106.579796 54.396873 106.579796Q53.38125 106.579796 52.740623 105.767296Q52.115623 104.93917 52.115623 103.517296ZM53.115623 103.62667Q53.115623 104.611046 53.521873 105.173546Q53.928123 105.736046 54.646873 105.736046Q55.584373 105.736046 56.021873 104.87667L56.021873 102.22042Q55.56875 101.392296 54.6625 101.392296Q53.928123 101.392296 53.521873 101.954796Q53.115623 102.517296 53.115623 103.62667ZM60.75625 106.579796Q59.584373 106.579796 58.834373 105.81417Q58.1 105.03292 58.1 103.72042L58.1 103.548546Q58.1 102.673546 58.428123 102.00167Q58.75625 101.31417 59.35 100.93917Q59.94375 100.548546 60.646873 100.548546Q61.771873 100.548546 62.396873 101.298546Q63.0375 102.048546 63.0375 103.43917L63.0375 103.84542L59.1 103.84542Q59.115623 104.704796 59.584373 105.236046Q60.06875 105.767296 60.81875 105.767296Q61.35 105.767296 61.709373 105.548546Q62.06875 105.329796 62.35 104.986046L62.959373 105.454796Q62.225 106.579796 60.75625 106.579796ZM60.646873 101.361046Q60.0375 101.361046 59.63125 101.798546Q59.225 102.236046 59.13125 103.03292L62.0375 103.03292L62.0375 102.954796Q61.990623 102.204796 61.615623 101.78292Q61.25625 101.361046 60.646873 101.361046ZM64.11562 103.517296Q64.11562 102.173546 64.74062 101.361046Q65.38125 100.548546 66.39687 100.548546Q67.42812 100.548546 68.02187 101.25167L68.02187 98.22042L69.02187 98.22042L69.02187 106.47042L68.1 106.47042L68.05312 105.84542Q67.45937 106.579796 66.39687 106.579796Q65.38125 106.579796 64.74062 105.75167Q64.11562 104.923546 64.11562 103.59542L64.11562 103.517296ZM65.1 103.62667Q65.1 104.611046 65.50625 105.173546Q65.92812 105.736046 66.64687 105.736046Q67.58437 105.736046 68.02187 104.892296L68.02187 102.22042Q67.56875 101.392296 66.64687 101.392296Q65.92812 101.392296 65.50625 101.954796Q65.1 102.517296 65.1 103.62667Z" fill-rule="nonzero"/><path fill="#9e9e9e" d="M31.521875 123.47042L30.521875 123.47042L30.521875 116.84542L28.50625 117.579796L28.50625 116.673546L31.365625 115.611046L31.521875 115.611046L31.521875 123.47042ZM39.303123 116.204796L36.053123 123.47042L35.021873 123.47042L38.240623 116.47042L34.00625 116.47042L34.00625 115.642296L39.303123 115.642296L39.303123 116.204796ZM40.38125 122.954796Q40.38125 122.68917 40.521873 122.517296Q40.678123 122.34542 40.975 122.34542Q41.2875 122.34542 41.44375 122.517296Q41.615623 122.68917 41.615623 122.954796Q41.615623 123.18917 41.44375 123.361046Q41.2875 123.53292 40.975 123.53292Q40.678123 123.53292 40.521873 123.361046Q40.38125 123.18917 40.38125 122.954796ZM47.44375 120.84542L48.5375 120.84542L48.5375 121.65792L47.44375 121.65792L47.44375 123.47042L46.44375 123.47042L46.44375 121.65792L42.88125 121.65792L42.88125 121.06417L46.38125 115.642296L47.44375 115.642296L47.44375 120.84542ZM44.00625 120.84542L46.44375 120.84542L46.44375 117.00167L46.334373 117.22042L44.00625 120.84542ZM49.1625 117.15792Q49.1625 116.454796 49.615623 116.00167Q50.06875 115.53292 50.771873 115.53292Q51.475 115.53292 51.9125 116.00167Q52.365623 116.454796 52.365623 117.18917L52.365623 117.56417Q52.365623 118.28292 51.9125 118.736046Q51.475 119.173546 50.771873 119.173546Q50.084373 119.173546 49.615623 118.736046Q49.1625 118.28292 49.1625 117.53292L49.1625 117.15792ZM49.9125 117.56417Q49.9125 117.986046 50.146873 118.267296Q50.38125 118.53292 50.771873 118.53292Q51.1625 118.53292 51.396873 118.267296Q51.63125 118.00167 51.63125 117.548546L51.63125 117.15792Q51.63125 116.736046 51.396873 116.47042Q51.1625 116.18917 50.75625 116.18917Q50.365623 116.18917 50.13125 116.47042Q49.9125 116.736046 49.9125 117.173546L49.9125 117.56417ZM52.975 121.548546Q52.975 120.84542 53.4125 120.392296Q53.865623 119.93917 54.56875 119.93917Q55.271873 119.93917 55.725 120.392296Q56.178123 120.84542 56.178123 121.59542L56.178123 121.97042Q56.178123 122.673546 55.725 123.12667Q55.2875 123.579796 54.584373 123.579796Q53.88125 123.579796 53.428123 123.142296Q52.975 122.68917 52.975 121.93917L52.975 121.548546ZM53.709373 121.97042Q53.709373 122.392296 53.94375 122.673546Q54.19375 122.93917 54.584373 122.93917Q54.975 122.93917 55.19375 122.673546Q55.428123 122.40792 55.428123 121.954796L55.428123 121.548546Q55.428123 121.12667 55.19375 120.861046Q54.959373 120.59542 54.56875 120.59542Q54.19375 120.59542 53.94375 120.861046Q53.709373 121.12667 53.709373 121.579796L53.709373 121.97042ZM51.00625 122.87667L50.44375 122.517296L54.25625 116.40792L54.81875 116.767296L51.00625 122.87667Z" fill-rule="nonzero"/><path stroke="#757575" stroke-width="1.0" stroke-linecap="butt" d="M27.6 110.97042L212.3 110.97042L333.8594 110.97042" fill-rule="nonzero"/><path fill="#9e9e9e" d="M335.8594 110.97042C335.8594 109.865845 334.96396 108.97042 333.8594 108.97042C332.75482 108.97042 331.8594 109.865845 331.8594 110.97042C331.8594 112.07499 332.75482 112.97042 333.8594 112.97042C334.96396 112.97042 335.8594 112.07499 335.8594 110.97042" fill-rule="nonzero"/><path fill="#666666" d="M34.521873 318.28333L33.475 318.28333L29.5375 312.25208L29.5375 318.28333L28.50625 318.28333L28.50625 310.4552L29.5375 310.4552L33.490623 316.5177L33.490623 310.4552L34.521873 310.4552L34.521873 318.28333ZM36.084373 315.3302Q36.084373 314.47083 36.4125 313.79895Q36.75625 313.11145 37.35 312.73645Q37.959373 312.36145 38.725 312.36145Q39.9125 312.36145 40.646873 313.18958Q41.38125 314.00208 41.38125 315.37708L41.38125 315.43958Q41.38125 316.28333 41.053123 316.97083Q40.725 317.6427 40.115623 318.0177Q39.521873 318.3927 38.740623 318.3927Q37.553123 318.3927 36.81875 317.5802Q36.084373 316.75208 36.084373 315.3927L36.084373 315.3302ZM37.084373 315.43958Q37.084373 316.40833 37.5375 317.00208Q37.990623 317.5802 38.740623 317.5802Q39.490623 317.5802 39.928123 316.98645Q40.38125 316.3927 40.38125 315.3302Q40.38125 314.36145 39.928123 313.7677Q39.475 313.17395 38.725 313.17395Q37.990623 313.17395 37.5375 313.7677Q37.084373 314.34583 37.084373 315.43958ZM43.69375 311.06458L43.69375 312.47083L44.7875 312.47083L44.7875 313.23645L43.69375 313.23645L43.69375 316.84583Q43.69375 317.18958 43.834373 317.37708Q43.990623 317.54895 44.334373 317.54895Q44.50625 317.54895 44.81875 317.47083L44.81875 318.28333Q44.4125 318.3927 44.053123 318.3927Q43.38125 318.3927 43.0375 317.98645Q42.709373 317.5802 42.709373 316.84583L42.709373 313.23645L41.646873 313.23645L41.646873 312.47083L42.709373 312.47083L42.709373 311.06458L43.69375 311.06458ZM47.428123 318.28333L46.44375 318.28333L46.44375 312.47083L47.428123 312.47083L47.428123 318.28333ZM46.35 310.92395Q46.35 310.68958 46.490623 310.53333Q46.646873 310.36145 46.94375 310.36145Q47.240623 310.36145 47.38125 310.53333Q47.5375 310.68958 47.5375 310.93958Q47.5375 311.17395 47.38125 311.3302Q47.240623 311.48645 46.94375 311.48645Q46.646873 311.48645 46.490623 311.3302Q46.35 311.17395 46.35 310.92395ZM51.678123 317.5802Q52.209373 317.5802 52.6 317.2677Q53.00625 316.93958 53.053123 316.4552L53.990623 316.4552Q53.959373 316.9552 53.646873 317.40833Q53.334373 317.84583 52.803123 318.12708Q52.271873 318.3927 51.678123 318.3927Q50.490623 318.3927 49.7875 317.59583Q49.1 316.79895 49.1 315.42395L49.1 315.2677Q49.1 314.40833 49.4125 313.75208Q49.725 313.09583 50.303123 312.73645Q50.88125 312.36145 51.678123 312.36145Q52.6625 312.36145 53.303123 312.9552Q53.94375 313.53333 53.990623 314.47083L53.053123 314.47083Q53.00625 313.90833 52.615623 313.54895Q52.240623 313.17395 51.678123 313.17395Q50.928123 313.17395 50.50625 313.72083Q50.084373 314.2677 50.084373 315.29895L50.084373 315.48645Q50.084373 316.50208 50.490623 317.04895Q50.9125 317.5802 51.678123 317.5802ZM57.75625 318.3927Q56.584373 318.3927 55.834373 317.62708Q55.1 316.84583 55.1 315.53333L55.1 315.36145Q55.1 314.48645 55.428123 313.81458Q55.75625 313.12708 56.35 312.75208Q56.94375 312.36145 57.646873 312.36145Q58.771873 312.36145 59.396873 313.11145Q60.0375 313.86145 60.0375 315.25208L60.0375 315.65833L56.1 315.65833Q56.115623 316.5177 56.584373 317.04895Q57.06875 317.5802 57.81875 317.5802Q58.35 317.5802 58.709373 317.36145Q59.06875 317.1427 59.35 316.79895L59.959373 317.2677Q59.225 318.3927 57.75625 318.3927ZM57.646873 313.17395Q57.0375 313.17395 56.63125 313.61145Q56.225 314.04895 56.13125 314.84583L59.0375 314.84583L59.0375 314.7677Q58.990623 314.0177 58.615623 313.59583Q58.25625 313.17395 57.646873 313.17395ZM61.115623 315.3302Q61.115623 313.98645 61.740623 313.17395Q62.38125 312.36145 63.396873 312.36145Q64.42812 312.36145 65.02187 313.06458L65.02187 310.03333L66.02187 310.03333L66.02187 318.28333L65.1 318.28333L65.05312 317.65833Q64.45937 318.3927 63.396873 318.3927Q62.38125 318.3927 61.740623 317.56458Q61.115623 316.73645 61.115623 315.40833L61.115623 315.3302ZM62.1 315.43958Q62.1 316.42395 62.50625 316.98645Q62.928123 317.54895 63.646873 317.54895Q64.58437 317.54895 65.02187 316.7052L65.02187 314.03333Q64.56875 313.2052 63.646873 313.2052Q62.928123 313.2052 62.50625 313.7677Q62.1 314.3302 62.1 315.43958ZM75.27187 315.43958Q75.27187 316.7677 74.6625 317.5802Q74.05312 318.3927 73.02187 318.3927Q71.9125 318.3927 71.31875 317.61145L71.27187 318.28333L70.35 318.28333L70.35 310.03333L71.35 310.03333L71.35 313.11145Q71.94375 312.36145 73.00625 312.36145Q74.06875 312.36145 74.6625 313.17395Q75.27187 313.97083 75.27187 315.36145L75.27187 315.43958ZM74.27187 315.3302Q74.27187 314.31458 73.88125 313.7677Q73.49062 313.2052 72.75625 313.2052Q71.77187 313.2052 71.35 314.12708L71.35 316.62708Q71.80312 317.54895 72.77187 317.54895Q73.49062 317.54895 73.88125 317.00208Q74.27187 316.43958 74.27187 315.3302ZM79.94375 317.7052Q79.36562 318.3927 78.24062 318.3927Q77.30312 318.3927 76.81875 317.86145Q76.33437 317.31458 76.33437 316.25208L76.33437 312.47083L77.31875 312.47083L77.31875 316.22083Q77.31875 317.54895 78.39687 317.54895Q79.5375 317.54895 79.9125 316.7052L79.9125 312.47083L80.9125 312.47083L80.9125 318.28333L79.95937 318.28333L79.94375 317.7052ZM83.69375 311.06458L83.69375 312.47083L84.7875 312.47083L84.7875 313.23645L83.69375 313.23645L83.69375 316.84583Q83.69375 317.18958 83.83437 317.37708Q83.99062 317.54895 84.33437 317.54895Q84.50625 317.54895 84.81875 317.47083L84.81875 318.28333Q84.4125 318.3927 84.05312 318.3927Q83.38125 318.3927 83.0375 317.98645Q82.70937 317.5802 82.70937 316.84583L82.70937 313.23645L81.64687 313.23645L81.64687 312.47083L82.70937 312.47083L82.70937 311.06458L83.69375 311.06458ZM89.11562 315.3302Q89.11562 313.98645 89.74062 313.17395Q90.38125 312.36145 91.39687 312.36145Q92.42812 312.36145 93.02187 313.06458L93.02187 310.03333L94.02187 310.03333L94.02187 318.28333L93.1 318.28333L93.05312 317.65833Q92.45937 318.3927 91.39687 318.3927Q90.38125 318.3927 89.74062 317.56458Q89.11562 316.73645 89.11562 315.40833L89.11562 315.3302ZM90.1 315.43958Q90.1 316.42395 90.50625 316.98645Q90.92812 317.54895 91.64687 317.54895Q92.58437 317.54895 93.02187 316.7052L93.02187 314.03333Q92.56875 313.2052 91.64687 313.2052Q90.92812 313.2052 90.50625 313.7677Q90.1 314.3302 90.1 315.43958ZM96.42812 318.28333L95.44375 318.28333L95.44375 312.47083L96.42812 312.47083L96.42812 318.28333ZM95.35 310.92395Q95.35 310.68958 95.49062 310.53333Q95.64687 310.36145 95.94375 310.36145Q96.24062 310.36145 96.38125 310.53333Q96.5375 310.68958 96.5375 310.93958Q96.5375 311.17395 96.38125 311.3302Q96.24062 311.48645 95.94375 311.48645Q95.64687 311.48645 95.49062 311.3302Q95.35 311.17395 95.35 310.92395ZM98.11562 315.3302Q98.11562 313.98645 98.74062 313.17395Q99.38125 312.36145 100.39687 312.36145Q101.42812 312.36145 102.02187 313.06458L102.02187 310.03333L103.02187 310.03333L103.02187 318.28333L102.1 318.28333L102.05312 317.65833Q101.45937 318.3927 100.39687 318.3927Q99.38125 318.3927 98.74062 317.56458Q98.11562 316.73645 98.11562 315.40833L98.11562 315.3302ZM99.1 315.43958Q99.1 316.42395 99.50625 316.98645Q99.92812 317.54895 100.64687 317.54895Q101.58437 317.54895 102.02187 316.7052L102.02187 314.03333Q101.56875 313.2052 100.64687 313.2052Q99.92812 313.2052 99.50625 313.7677Q99.1 314.3302 99.1 315.43958ZM108.2875 312.47083L108.31875 313.2052Q108.99062 312.36145 110.06875 312.36145Q111.9125 312.36145 111.92812 314.43958L111.92812 318.28333L110.92812 318.28333L110.92812 314.43958Q110.92812 313.81458 110.64687 313.5177Q110.36562 313.2052 109.75625 313.2052Q109.2875 313.2052 108.9125 313.47083Q108.55312 313.72083 108.35 314.1427L108.35 318.28333L107.35 318.28333L107.35 312.47083L108.2875 312.47083ZM113.08437 315.3302Q113.08437 314.47083 113.4125 313.79895Q113.75625 313.11145 114.35 312.73645Q114.95937 312.36145 115.725 312.36145Q116.9125 312.36145 117.64687 313.18958Q118.38125 314.00208 118.38125 315.37708L118.38125 315.43958Q118.38125 316.28333 118.05312 316.97083Q117.725 317.6427 117.11562 318.0177Q116.52187 318.3927 115.74062 318.3927Q114.55312 318.3927 113.81875 317.5802Q113.08437 316.75208 113.08437 315.3927L113.08437 315.3302ZM114.08437 315.43958Q114.08437 316.40833 114.5375 317.00208Q114.99062 317.5802 115.74062 317.5802Q116.49062 317.5802 116.92812 316.98645Q117.38125 316.3927 117.38125 315.3302Q117.38125 314.36145 116.92812 313.7677Q116.475 313.17395 115.725 313.17395Q114.99062 313.17395 114.5375 313.7677Q114.08437 314.34583 114.08437 315.43958ZM120.69375 311.06458L120.69375 312.47083L121.7875 312.47083L121.7875 313.23645L120.69375 313.23645L120.69375 316.84583Q120.69375 317.18958 120.83437 317.37708Q120.99062 317.54895 121.33437 317.54895Q121.50625 317.54895 121.81875 317.47083L121.81875 318.28333Q121.4125 318.3927 121.05312 318.3927Q120.38125 318.3927 120.0375 317.98645Q119.70937 317.5802 119.70937 316.84583L119.70937 313.23645L118.64687 313.23645L118.64687 312.47083L119.70937 312.47083L119.70937 311.06458L120.69375 311.06458ZM128.75626 318.3927Q127.58437 318.3927 126.83437 317.62708Q126.1 316.84583 126.1 315.53333L126.1 315.36145Q126.1 314.48645 126.42812 313.81458Q126.75625 313.12708 127.35 312.75208Q127.94375 312.36145 128.64688 312.36145Q129.77188 312.36145 130.39688 313.11145Q131.0375 313.86145 131.0375 315.25208L131.0375 315.65833L127.1 315.65833Q127.11562 316.5177 127.58437 317.04895Q128.06876 317.5802 128.81876 317.5802Q129.35 317.5802 129.70938 317.36145Q130.06876 317.1427 130.35 316.79895L130.95938 317.2677Q130.225 318.3927 128.75626 318.3927ZM128.64688 313.17395Q128.0375 313.17395 127.63125 313.61145Q127.225 314.04895 127.13125 314.84583L130.0375 314.84583L130.0375 314.7677Q129.99063 314.0177 129.61563 313.59583Q129.25626 313.17395 128.64688 313.17395ZM133.2875 312.47083L133.31876 313.2052Q133.99063 312.36145 135.06876 312.36145Q136.9125 312.36145 136.92813 314.43958L136.92813 318.28333L135.92813 318.28333L135.92813 314.43958Q135.92813 313.81458 135.64688 313.5177Q135.36563 313.2052 134.75626 313.2052Q134.2875 313.2052 133.9125 313.47083Q133.55313 313.72083 133.35 314.1427L133.35 318.28333L132.35 318.28333L132.35 312.47083L133.2875 312.47083ZM138.11563 315.3302Q138.11563 313.97083 138.74063 313.17395Q139.36563 312.36145 140.4125 312.36145Q141.475 312.36145 142.06876 313.11145L142.11563 312.47083L143.02188 312.47083L143.02188 318.1427Q143.02188 319.2677 142.35 319.90833Q141.69376 320.56458 140.55313 320.56458Q139.92813 320.56458 139.31876 320.29895Q138.725 320.03333 138.4125 319.56458L138.92813 318.97083Q139.56876 319.7677 140.49063 319.7677Q141.20938 319.7677 141.61563 319.34583Q142.02188 318.93958 142.02188 318.2052L142.02188 317.7052Q141.42813 318.3927 140.39688 318.3927Q139.38126 318.3927 138.74063 317.5802Q138.11563 316.75208 138.11563 315.3302ZM139.11563 315.43958Q139.11563 316.42395 139.52188 316.98645Q139.92813 317.54895 140.64688 317.54895Q141.58438 317.54895 142.02188 316.68958L142.02188 314.03333Q141.56876 313.2052 140.6625 313.2052Q139.92813 313.2052 139.52188 313.7677Q139.11563 314.3302 139.11563 315.43958ZM147.94376 318.28333Q147.85 318.11145 147.80313 317.67395Q147.1 318.3927 146.14688 318.3927Q145.2875 318.3927 144.725 317.90833Q144.17813 317.42395 144.17813 316.67395Q144.17813 315.7677 144.86563 315.2677Q145.56876 314.75208 146.81876 314.75208L147.7875 314.75208L147.7875 314.29895Q147.7875 313.78333 147.475 313.47083Q147.1625 313.15833 146.55313 313.15833Q146.02188 313.15833 145.6625 313.43958Q145.30313 313.7052 145.30313 314.0802L144.30313 314.0802Q144.30313 313.6427 144.61563 313.23645Q144.92813 312.8302 145.44376 312.59583Q145.975 312.36145 146.61563 312.36145Q147.61563 312.36145 148.17813 312.86145Q148.75626 313.36145 148.77188 314.25208L148.77188 316.92395Q148.77188 317.72083 148.975 318.18958L148.975 318.28333L147.94376 318.28333ZM146.2875 317.53333Q146.75626 317.53333 147.17813 317.29895Q147.6 317.04895 147.7875 316.65833L147.7875 315.47083L147.00626 315.47083Q145.17813 315.47083 145.17813 316.53333Q145.17813 317.00208 145.49063 317.2677Q145.80313 317.53333 146.2875 317.53333ZM150.11563 315.3302Q150.11563 313.97083 150.74063 313.17395Q151.36563 312.36145 152.4125 312.36145Q153.475 312.36145 154.06876 313.11145L154.11563 312.47083L155.02188 312.47083L155.02188 318.1427Q155.02188 319.2677 154.35 319.90833Q153.69376 320.56458 152.55313 320.56458Q151.92813 320.56458 151.31876 320.29895Q150.725 320.03333 150.4125 319.56458L150.92813 318.97083Q151.56876 319.7677 152.49063 319.7677Q153.20938 319.7677 153.61563 319.34583Q154.02188 318.93958 154.02188 318.2052L154.02188 317.7052Q153.42813 318.3927 152.39688 318.3927Q151.38126 318.3927 150.74063 317.5802Q150.11563 316.75208 150.11563 315.3302ZM151.11563 315.43958Q151.11563 316.42395 151.52188 316.98645Q151.92813 317.54895 152.64688 317.54895Q153.58438 317.54895 154.02188 316.68958L154.02188 314.03333Q153.56876 313.2052 152.6625 313.2052Q151.92813 313.2052 151.52188 313.7677Q151.11563 314.3302 151.11563 315.43958ZM158.75626 318.3927Q157.58438 318.3927 156.83438 317.62708Q156.1 316.84583 156.1 315.53333L156.1 315.36145Q156.1 314.48645 156.42813 313.81458Q156.75626 313.12708 157.35 312.75208Q157.94376 312.36145 158.64688 312.36145Q159.77188 312.36145 160.39688 313.11145Q161.0375 313.86145 161.0375 315.25208L161.0375 315.65833L157.1 315.65833Q157.11563 316.5177 157.58438 317.04895Q158.06876 317.5802 158.81876 317.5802Q159.35 317.5802 159.70938 317.36145Q160.06876 317.1427 160.35 316.79895L160.95938 317.2677Q160.225 318.3927 158.75626 318.3927ZM158.64688 313.17395Q158.0375 313.17395 157.63126 313.61145Q157.225 314.04895 157.13126 314.84583L160.0375 314.84583L160.0375 314.7677Q159.99063 314.0177 159.61563 313.59583Q159.25626 313.17395 158.64688 313.17395Z" fill-rule="nonzero"/><path fill="#9e9e9e" d="M31.521875 335.28333L30.521875 335.28333L30.521875 328.65833L28.50625 329.3927L28.50625 328.48645L31.365625 327.42395L31.521875 327.42395L31.521875 335.28333ZM38.053123 331.84583Q37.740623 332.22083 37.303123 332.4552Q36.88125 332.67395 36.365623 332.67395Q35.69375 332.67395 35.178123 332.34583Q34.678123 332.00208 34.396873 331.40833Q34.13125 330.79895 34.13125 330.06458Q34.13125 329.28333 34.428123 328.65833Q34.740623 328.0177 35.2875 327.68958Q35.834373 327.36145 36.553123 327.36145Q37.725 327.36145 38.38125 328.23645Q39.053123 329.09583 39.053123 330.59583L39.053123 330.87708Q39.053123 333.15833 38.146873 334.22083Q37.25625 335.2677 35.428123 335.28333L35.240623 335.28333L35.240623 334.4552L35.44375 334.4552Q36.678123 334.42395 37.334373 333.81458Q38.00625 333.18958 38.053123 331.84583ZM36.521873 331.84583Q37.021873 331.84583 37.44375 331.54895Q37.865623 331.23645 38.06875 330.78333L38.06875 330.37708Q38.06875 329.40833 37.63125 328.79895Q37.209373 328.18958 36.56875 328.18958Q35.9125 328.18958 35.50625 328.68958Q35.115623 329.18958 35.115623 330.00208Q35.115623 330.81458 35.490623 331.3302Q35.88125 331.84583 36.521873 331.84583ZM40.38125 334.7677Q40.38125 334.50208 40.521873 334.3302Q40.678123 334.15833 40.975 334.15833Q41.2875 334.15833 41.44375 334.3302Q41.615623 334.50208 41.615623 334.7677Q41.615623 335.00208 41.44375 335.17395Q41.2875 335.34583 40.975 335.34583Q40.678123 335.34583 40.521873 335.17395Q40.38125 335.00208 40.38125 334.7677ZM46.521873 335.28333L45.521873 335.28333L45.521873 328.65833L43.50625 329.3927L43.50625 328.48645L46.365623 327.42395L46.521873 327.42395L46.521873 335.28333ZM49.1625 328.97083Q49.1625 328.2677 49.615623 327.81458Q50.06875 327.34583 50.771873 327.34583Q51.475 327.34583 51.9125 327.81458Q52.365623 328.2677 52.365623 329.00208L52.365623 329.37708Q52.365623 330.09583 51.9125 330.54895Q51.475 330.98645 50.771873 330.98645Q50.084373 330.98645 49.615623 330.54895Q49.1625 330.09583 49.1625 329.34583L49.1625 328.97083ZM49.9125 329.37708Q49.9125 329.79895 50.146873 330.0802Q50.38125 330.34583 50.771873 330.34583Q51.1625 330.34583 51.396873 330.0802Q51.63125 329.81458 51.63125 329.36145L51.63125 328.97083Q51.63125 328.54895 51.396873 328.28333Q51.1625 328.00208 50.75625 328.00208Q50.365623 328.00208 50.13125 328.28333Q49.9125 328.54895 49.9125 328.98645L49.9125 329.37708ZM52.975 333.36145Q52.975 332.65833 53.4125 332.2052Q53.865623 331.75208 54.56875 331.75208Q55.271873 331.75208 55.725 332.2052Q56.178123 332.65833 56.178123 333.40833L56.178123 333.78333Q56.178123 334.48645 55.725 334.93958Q55.2875 335.3927 54.584373 335.3927Q53.88125 335.3927 53.428123 334.9552Q52.975 334.50208 52.975 333.75208L52.975 333.36145ZM53.709373 333.78333Q53.709373 334.2052 53.94375 334.48645Q54.19375 334.75208 54.584373 334.75208Q54.975 334.75208 55.19375 334.48645Q55.428123 334.22083 55.428123 333.7677L55.428123 333.36145Q55.428123 332.93958 55.19375 332.67395Q54.959373 332.40833 54.56875 332.40833Q54.19375 332.40833 53.94375 332.67395Q53.709373 332.93958 53.709373 333.3927L53.709373 333.78333ZM51.00625 334.68958L50.44375 334.3302L54.25625 328.22083L54.81875 328.5802L51.00625 334.68958Z" fill-rule="nonzero"/><path stroke="#757575" stroke-width="1.0" stroke-linecap="butt" d="M27.6 322.78333L212.3 322.78333L231.34602 322.78333" fill-rule="nonzero"/><path fill="#9e9e9e" d="M233.34602 322.78333C233.34602 321.67877 232.4506 320.78333 231.34602 320.78333C230.24146 320.78333 229.34602 321.67877 229.34602 322.78333C229.34602 323.8879 230.24146 324.78333 231.34602 324.78333C232.4506 324.78333 233.34602 323.8879 233.34602 322.78333" fill-rule="nonzero"/><path fill="#666666" d="M797.3063 380.77722L797.3063 372.9491L799.5094 372.9491Q800.54065 372.9491 801.3219 373.40222Q802.10315 373.85535 802.525 374.6991Q802.9625 375.52722 802.9625 376.60535L802.9625 377.10535Q802.9625 378.21472 802.525 379.04285Q802.10315 379.87097 801.3063 380.3241Q800.525 380.7616 799.47815 380.77722L797.3063 380.77722ZM798.3375 373.80847L798.3375 379.93347L799.4313 379.93347Q800.6188 379.93347 801.275 379.1991Q801.9469 378.4491 801.9469 377.0741L801.9469 376.62097Q801.9469 375.29285 801.3219 374.55847Q800.6969 373.80847 799.54065 373.80847L798.3375 373.80847ZM805.22815 380.77722L804.2438 380.77722L804.2438 374.96472L805.22815 374.96472L805.22815 380.77722ZM804.15 373.41785Q804.15 373.18347 804.29065 373.02722Q804.4469 372.85535 804.7438 372.85535Q805.04065 372.85535 805.1813 373.02722Q805.3375 373.18347 805.3375 373.43347Q805.3375 373.66785 805.1813 373.8241Q805.04065 373.98035 804.7438 373.98035Q804.4469 373.98035 804.29065 373.8241Q804.15 373.66785 804.15 373.41785ZM806.91565 377.8241Q806.91565 376.48035 807.54065 375.66785Q808.1813 374.85535 809.1969 374.85535Q810.22815 374.85535 810.8219 375.55847L810.8219 372.52722L811.8219 372.52722L811.8219 380.77722L810.9 380.77722L810.85315 380.15222Q810.2594 380.8866 809.1969 380.8866Q808.1813 380.8866 807.54065 380.05847Q806.91565 379.23035 806.91565 377.90222L806.91565 377.8241ZM807.9 377.93347Q807.9 378.91785 808.3063 379.48035Q808.72815 380.04285 809.4469 380.04285Q810.3844 380.04285 810.8219 379.1991L810.8219 376.52722Q810.3688 375.6991 809.4469 375.6991Q808.72815 375.6991 808.3063 376.2616Q807.9 376.8241 807.9 377.93347ZM817.0875 374.96472L817.1188 375.6991Q817.79065 374.85535 818.8688 374.85535Q820.7125 374.85535 820.72815 376.93347L820.72815 380.77722L819.72815 380.77722L819.72815 376.93347Q819.72815 376.30847 819.4469 376.0116Q819.16565 375.6991 818.5563 375.6991Q818.0875 375.6991 817.7125 375.96472Q817.35315 376.21472 817.15 376.6366L817.15 380.77722L816.15 380.77722L816.15 374.96472L817.0875 374.96472ZM821.8844 377.8241Q821.8844 376.96472 822.2125 376.29285Q822.5563 375.60535 823.15 375.23035Q823.7594 374.85535 824.525 374.85535Q825.7125 374.85535 826.4469 375.68347Q827.1813 376.49597 827.1813 377.87097L827.1813 377.93347Q827.1813 378.77722 826.85315 379.46472Q826.525 380.1366 825.91565 380.5116Q825.3219 380.8866 824.54065 380.8866Q823.35315 380.8866 822.6188 380.0741Q821.8844 379.24597 821.8844 377.8866L821.8844 377.8241ZM822.8844 377.93347Q822.8844 378.90222 823.3375 379.49597Q823.79065 380.0741 824.54065 380.0741Q825.29065 380.0741 825.72815 379.48035Q826.1813 378.8866 826.1813 377.8241Q826.1813 376.85535 825.72815 376.2616Q825.275 375.66785 824.525 375.66785Q823.79065 375.66785 823.3375 376.2616Q822.8844 376.83972 822.8844 377.93347ZM829.4938 373.55847L829.4938 374.96472L830.5875 374.96472L830.5875 375.73035L829.4938 375.73035L829.4938 379.33972Q829.4938 379.68347 829.6344 379.87097Q829.79065 380.04285 830.1344 380.04285Q830.3063 380.04285 830.6188 379.96472L830.6188 380.77722Q830.2125 380.8866 829.85315 380.8866Q829.1813 380.8866 828.8375 380.48035Q828.5094 380.0741 828.5094 379.33972L828.5094 375.73035L827.4469 375.73035L827.4469 374.96472L828.5094 374.96472L828.5094 373.55847L829.4938 373.55847ZM836.0875 374.96472L836.1188 375.6991Q836.79065 374.85535 837.8688 374.85535Q839.7125 374.85535 839.72815 376.93347L839.72815 380.77722L838.72815 380.77722L838.72815 376.93347Q838.72815 376.30847 838.4469 376.0116Q838.16565 375.6991 837.5563 375.6991Q837.0875 375.6991 836.7125 375.96472Q836.35315 376.21472 836.15 376.6366L836.15 380.77722L835.15 380.77722L835.15 374.96472L836.0875 374.96472ZM840.8844 377.8241Q840.8844 376.96472 841.2125 376.29285Q841.5563 375.60535 842.15 375.23035Q842.7594 374.85535 843.525 374.85535Q844.7125 374.85535 845.4469 375.68347Q846.1813 376.49597 846.1813 377.87097L846.1813 377.93347Q846.1813 378.77722 845.85315 379.46472Q845.525 380.1366 844.91565 380.5116Q844.3219 380.8866 843.54065 380.8866Q842.35315 380.8866 841.6188 380.0741Q840.8844 379.24597 840.8844 377.8866L840.8844 377.8241ZM841.8844 377.93347Q841.8844 378.90222 842.3375 379.49597Q842.79065 380.0741 843.54065 380.0741Q844.29065 380.0741 844.72815 379.48035Q845.1813 378.8866 845.1813 377.8241Q845.1813 376.85535 844.72815 376.2616Q844.275 375.66785 843.525 375.66785Q842.79065 375.66785 842.3375 376.2616Q841.8844 376.83972 841.8844 377.93347ZM848.4938 373.55847L848.4938 374.96472L849.5875 374.96472L849.5875 375.73035L848.4938 375.73035L848.4938 379.33972Q848.4938 379.68347 848.6344 379.87097Q848.79065 380.04285 849.1344 380.04285Q849.3063 380.04285 849.6188 379.96472L849.6188 380.77722Q849.2125 380.8866 848.85315 380.8866Q848.1813 380.8866 847.8375 380.48035Q847.5094 380.0741 847.5094 379.33972L847.5094 375.73035L846.4469 375.73035L846.4469 374.96472L847.5094 374.96472L847.5094 373.55847L848.4938 373.55847ZM852.22815 380.77722L851.2438 380.77722L851.2438 374.96472L852.22815 374.96472L852.22815 380.77722ZM851.15 373.41785Q851.15 373.18347 851.29065 373.02722Q851.4469 372.85535 851.7438 372.85535Q852.04065 372.85535 852.1813 373.02722Q852.3375 373.18347 852.3375 373.43347Q852.3375 373.66785 852.1813 373.8241Q852.04065 373.98035 851.7438 373.98035Q851.4469 373.98035 851.29065 373.8241Q851.15 373.66785 851.15 373.41785ZM856.47815 380.0741Q857.0094 380.0741 857.4 379.7616Q857.8063 379.43347 857.85315 378.9491L858.79065 378.9491Q858.7594 379.4491 858.4469 379.90222Q858.1344 380.33972 857.60315 380.62097Q857.0719 380.8866 856.47815 380.8866Q855.29065 380.8866 854.5875 380.08972Q853.9 379.29285 853.9 377.91785L853.9 377.7616Q853.9 376.90222 854.2125 376.24597Q854.525 375.58972 855.10315 375.23035Q855.6813 374.85535 856.47815 374.85535Q857.4625 374.85535 858.10315 375.4491Q858.7438 376.02722 858.79065 376.96472L857.85315 376.96472Q857.8063 376.40222 857.41565 376.04285Q857.04065 375.66785 856.47815 375.66785Q855.72815 375.66785 855.3063 376.21472Q854.8844 376.7616 854.8844 377.79285L854.8844 377.98035Q854.8844 378.99597 855.29065 379.54285Q855.7125 380.0741 856.47815 380.0741ZM862.5563 380.8866Q861.3844 380.8866 860.6344 380.12097Q859.9 379.33972 859.9 378.02722L859.9 377.85535Q859.9 376.98035 860.22815 376.30847Q860.5563 375.62097 861.15 375.24597Q861.7438 374.85535 862.4469 374.85535Q863.5719 374.85535 864.1969 375.60535Q864.8375 376.35535 864.8375 377.74597L864.8375 378.15222L860.9 378.15222Q860.91565 379.0116 861.3844 379.54285Q861.8688 380.0741 862.6188 380.0741Q863.15 380.0741 863.5094 379.85535Q863.8688 379.6366 864.15 379.29285L864.7594 379.7616Q864.025 380.8866 862.5563 380.8866ZM862.4469 375.66785Q861.8375 375.66785 861.4313 376.10535Q861.025 376.54285 860.9313 377.33972L863.8375 377.33972L863.8375 377.2616Q863.79065 376.5116 863.41565 376.08972Q863.0563 375.66785 862.4469 375.66785Z" fill-rule="nonzero"/><path fill="#9e9e9e" d="M840.9469 389.9491L840.9469 390.79285L840.7594 390.79285Q839.60315 390.80847 838.91565 391.48035Q838.22815 392.15222 838.1188 393.35535Q838.7438 392.65222 839.8063 392.65222Q840.8375 392.65222 841.4469 393.37097Q842.0563 394.08972 842.0563 395.23035Q842.0563 396.43347 841.3844 397.16785Q840.72815 397.8866 839.6344 397.8866Q838.5094 397.8866 837.8063 397.02722Q837.10315 396.16785 837.10315 394.80847L837.10315 394.41785Q837.10315 392.2616 838.025 391.12097Q838.9469 389.98035 840.775 389.9491L840.9469 389.9491ZM839.65 393.48035Q839.1344 393.48035 838.6969 393.79285Q838.275 394.08972 838.10315 394.54285L838.10315 394.91785Q838.10315 395.8866 838.54065 396.48035Q838.97815 397.05847 839.6344 397.05847Q840.3063 397.05847 840.6813 396.5741Q841.0719 396.0741 841.0719 395.27722Q841.0719 394.46472 840.6813 393.98035Q840.29065 393.48035 839.65 393.48035ZM844.4938 393.3866L845.2438 393.3866Q845.9469 393.37097 846.3375 393.0116Q846.7438 392.65222 846.7438 392.04285Q846.7438 390.66785 845.3844 390.66785Q844.7438 390.66785 844.35315 391.04285Q843.9625 391.40222 843.9625 392.0116L842.97815 392.0116Q842.97815 391.0741 843.65 390.46472Q844.3375 389.85535 845.3844 389.85535Q846.4938 389.85535 847.1188 390.4491Q847.7438 391.02722 847.7438 392.05847Q847.7438 392.5741 847.41565 393.05847Q847.0875 393.52722 846.5094 393.7616Q847.16565 393.96472 847.5094 394.4491Q847.8688 394.91785 847.8688 395.58972Q847.8688 396.65222 847.1813 397.27722Q846.4938 397.8866 845.3844 397.8866Q844.29065 397.8866 843.5875 397.29285Q842.9 396.6991 842.9 395.71472L843.9 395.71472Q843.9 396.33972 844.3063 396.71472Q844.7125 397.0741 845.3844 397.0741Q846.10315 397.0741 846.47815 396.6991Q846.8688 396.3241 846.8688 395.62097Q846.8688 394.93347 846.4469 394.5741Q846.025 394.1991 845.2438 394.1991L844.4938 394.1991L844.4938 393.3866ZM849.1813 397.2616Q849.1813 396.99597 849.3219 396.8241Q849.47815 396.65222 849.775 396.65222Q850.0875 396.65222 850.2438 396.8241Q850.41565 396.99597 850.41565 397.2616Q850.41565 397.49597 850.2438 397.66785Q850.0875 397.83972 849.775 397.83972Q849.47815 397.83972 849.3219 397.66785Q849.1813 397.49597 849.1813 397.2616ZM852.5094 393.85535L852.9 389.9491L856.91565 389.9491L856.91565 390.87097L853.7438 390.87097L853.5094 393.0116Q854.0875 392.66785 854.8219 392.66785Q855.8844 392.66785 856.5094 393.37097Q857.1344 394.0741 857.1344 395.27722Q857.1344 396.49597 856.47815 397.1991Q855.8375 397.8866 854.66565 397.8866Q853.6344 397.8866 852.97815 397.30847Q852.3219 396.73035 852.22815 395.71472L853.16565 395.71472Q853.2594 396.3866 853.6344 396.73035Q854.025 397.0741 854.66565 397.0741Q855.35315 397.0741 855.7438 396.60535Q856.15 396.12097 856.15 395.29285Q856.15 394.5116 855.7125 394.04285Q855.29065 393.55847 854.5875 393.55847Q853.9313 393.55847 853.5719 393.83972L853.3063 394.05847L852.5094 393.85535ZM857.9625 391.46472Q857.9625 390.7616 858.41565 390.30847Q858.8688 389.83972 859.5719 389.83972Q860.275 389.83972 860.7125 390.30847Q861.16565 390.7616 861.16565 391.49597L861.16565 391.87097Q861.16565 392.58972 860.7125 393.04285Q860.275 393.48035 859.5719 393.48035Q858.8844 393.48035 858.41565 393.04285Q857.9625 392.58972 857.9625 391.83972L857.9625 391.46472ZM858.7125 391.87097Q858.7125 392.29285 858.9469 392.5741Q859.1813 392.83972 859.5719 392.83972Q859.9625 392.83972 860.1969 392.5741Q860.4313 392.30847 860.4313 391.85535L860.4313 391.46472Q860.4313 391.04285 860.1969 390.77722Q859.9625 390.49597 859.5563 390.49597Q859.16565 390.49597 858.9313 390.77722Q858.7125 391.04285 858.7125 391.48035L858.7125 391.87097ZM861.775 395.85535Q861.775 395.15222 862.2125 394.6991Q862.66565 394.24597 863.3688 394.24597Q864.0719 394.24597 864.525 394.6991Q864.97815 395.15222 864.97815 395.90222L864.97815 396.27722Q864.97815 396.98035 864.525 397.43347Q864.0875 397.8866 863.3844 397.8866Q862.6813 397.8866 862.22815 397.4491Q861.775 396.99597 861.775 396.24597L861.775 395.85535ZM862.5094 396.27722Q862.5094 396.6991 862.7438 396.98035Q862.9938 397.24597 863.3844 397.24597Q863.775 397.24597 863.9938 396.98035Q864.22815 396.71472 864.22815 396.2616L864.22815 395.85535Q864.22815 395.43347 863.9938 395.16785Q863.7594 394.90222 863.3688 394.90222Q862.9938 394.90222 862.7438 395.16785Q862.5094 395.43347 862.5094 395.8866L862.5094 396.27722ZM859.8063 397.18347L859.2438 396.8241L863.0563 390.71472L863.6188 391.0741L859.8063 397.18347Z" fill-rule="nonzero"/><path stroke="#757575" stroke-width="1.0" stroke-linecap="butt" d="M865.4 385.27722L680.7 385.27722L644.144 385.27722" fill-rule="nonzero"/><path fill="#9e9e9e" d="M646.144 385.27722C646.144 384.17267 645.2486 383.27722 644.144 383.27722C643.0394 383.27722 642.144 384.17267 642.144 385.27722C642.144 386.3818 643.0394 387.27722 644.144 387.27722C645.2486 387.27722 646.144 386.3818 646.144 385.27722" fill-rule="nonzero"/><path fill="#000000" d="M38.928123 38.615623Q38.928123 40.490623 38.2875 41.896873Q37.6625 43.303123 36.50625 44.0375Q35.35 44.771873 33.803123 44.771873Q32.2875 44.771873 31.115625 44.0375Q29.94375 43.2875 29.303125 41.9125Q28.6625 40.5375 28.63125 38.725L28.63125 37.803123Q28.63125 35.959373 29.271875 34.553123Q29.928125 33.13125 31.1 32.38125Q32.271873 31.631248 33.771873 31.631248Q35.31875 31.631248 36.490623 32.38125Q37.6625 33.115623 38.2875 34.521873Q38.928123 35.928123 38.928123 37.803123L38.928123 38.615623ZM37.25625 37.7875Q37.25625 35.50625 36.334373 34.303123Q35.428123 33.084373 33.771873 33.084373Q32.178123 33.084373 31.25625 34.303123Q30.35 35.50625 30.31875 37.678123L30.31875 38.615623Q30.31875 40.81875 31.240625 42.084373Q32.178123 43.35 33.803123 43.35Q35.428123 43.35 36.31875 42.1625Q37.225 40.959373 37.25625 38.740623L37.25625 37.7875ZM48.88125 39.94375Q48.88125 42.13125 47.88125 43.459373Q46.88125 44.771873 45.19375 44.771873Q43.38125 44.771873 42.396873 43.50625L42.31875 44.6L40.834373 44.6L40.834373 31.099998L42.459373 31.099998L42.459373 36.13125Q43.44375 34.9125 45.1625 34.9125Q46.896873 34.9125 47.88125 36.225Q48.88125 37.5375 48.88125 39.803123L48.88125 39.94375ZM47.25625 39.771873Q47.25625 38.1 46.615623 37.19375Q45.975 36.2875 44.771873 36.2875Q43.1625 36.2875 42.459373 37.7875L42.459373 41.896873Q43.209373 43.396873 44.7875 43.396873Q45.959373 43.396873 46.6 42.490623Q47.25625 41.584373 47.25625 39.771873ZM56.365623 42.084373Q56.365623 41.4125 55.865623 41.053123Q55.38125 40.69375 54.146873 40.428123Q52.9125 40.1625 52.178123 39.803123Q51.459373 39.428123 51.1 38.9125Q50.75625 38.396873 50.75625 37.69375Q50.75625 36.5375 51.740623 35.725Q52.740623 34.9125 54.271873 34.9125Q55.896873 34.9125 56.896873 35.75625Q57.9125 36.584373 57.9125 37.88125L56.271873 37.88125Q56.271873 37.209373 55.69375 36.740623Q55.13125 36.25625 54.271873 36.25625Q53.38125 36.25625 52.88125 36.646873Q52.38125 37.021873 52.38125 37.646873Q52.38125 38.240623 52.85 38.5375Q53.31875 38.834373 54.5375 39.115623Q55.75625 39.38125 56.50625 39.75625Q57.271873 40.13125 57.63125 40.6625Q57.990623 41.19375 57.990623 41.959373Q57.990623 43.240623 56.975 44.00625Q55.959373 44.771873 54.334373 44.771873Q53.19375 44.771873 52.303123 44.365623Q51.428123 43.959373 50.928123 43.240623Q50.428123 42.521873 50.428123 41.678123L52.06875 41.678123Q52.1 42.490623 52.709373 42.975Q53.334373 43.44375 54.334373 43.44375Q55.25625 43.44375 55.803123 43.06875Q56.365623 42.69375 56.365623 42.084373ZM63.771873 44.771873Q61.85 44.771873 60.63125 43.50625Q59.4125 42.240623 59.4125 40.115623L59.4125 39.803123Q59.4125 38.396873 59.959373 37.2875Q60.50625 36.178123 61.475 35.553123Q62.44375 34.9125 63.56875 34.9125Q65.42812 34.9125 66.45937 36.13125Q67.49062 37.35 67.49062 39.63125L67.49062 40.303123L61.0375 40.303123Q61.084373 41.709373 61.865623 42.584373Q62.646873 43.44375 63.865623 43.44375Q64.725 43.44375 65.31875 43.1Q65.92812 42.740623 66.36562 42.1625L67.36562 42.94375Q66.1625 44.771873 63.771873 44.771873ZM63.56875 36.25625Q62.584373 36.25625 61.9125 36.975Q61.25625 37.678123 61.1 38.975L65.86562 38.975L65.86562 38.85Q65.7875 37.615623 65.19375 36.94375Q64.6 36.25625 63.56875 36.25625ZM74.42812 36.553123Q74.05312 36.490623 73.63125 36.490623Q72.02187 36.490623 71.45937 37.85L71.45937 44.6L69.83437 44.6L69.83437 35.084373L71.4125 35.084373L71.44375 36.19375Q72.24062 34.9125 73.70937 34.9125Q74.17812 34.9125 74.42812 35.0375L74.42812 36.553123ZM78.975 42.396873L81.31875 35.084373L82.99062 35.084373L79.56875 44.6L78.33437 44.6L74.89687 35.084373L76.55312 35.084373L78.975 42.396873ZM90.70937 44.6Q90.56875 44.31875 90.475 43.6Q89.33437 44.771873 87.77187 44.771873Q86.36562 44.771873 85.45937 43.975Q84.55312 43.178123 84.55312 41.959373Q84.55312 40.475 85.67812 39.6625Q86.81875 38.834373 88.86562 38.834373L90.44375 38.834373L90.44375 38.084373Q90.44375 37.240623 89.92812 36.740623Q89.42812 36.225 88.42812 36.225Q87.56875 36.225 86.975 36.6625Q86.38125 37.1 86.38125 37.725L84.75625 37.725Q84.75625 37.021873 85.25625 36.365623Q85.75625 35.69375 86.61562 35.303123Q87.49062 34.9125 88.5375 34.9125Q90.17812 34.9125 91.1 35.740623Q92.0375 36.553123 92.06875 38.00625L92.06875 42.38125Q92.06875 43.678123 92.4125 44.459373L92.4125 44.6L90.70937 44.6ZM88.00625 43.365623Q88.77187 43.365623 89.45937 42.975Q90.14687 42.56875 90.44375 41.94375L90.44375 39.990623L89.17812 39.990623Q86.17812 39.990623 86.17812 41.740623Q86.17812 42.50625 86.69375 42.94375Q87.20937 43.365623 88.00625 43.365623ZM97.0375 32.7875L97.0375 35.084373L98.81875 35.084373L98.81875 36.35L97.0375 36.35L97.0375 42.240623Q97.0375 42.81875 97.27187 43.1Q97.50625 43.38125 98.08437 43.38125Q98.36562 43.38125 98.85 43.2875L98.85 44.6Q98.20937 44.771873 97.61562 44.771873Q96.52187 44.771873 95.95937 44.115623Q95.4125 43.459373 95.4125 42.240623L95.4125 36.35L93.67812 36.35L93.67812 35.084373L95.4125 35.084373L95.4125 32.7875L97.0375 32.7875ZM102.6 44.6L100.975 44.6L100.975 35.084373L102.6 35.084373L102.6 44.6ZM100.83437 32.56875Q100.83437 32.178123 101.06875 31.912498Q101.31875 31.631248 101.7875 31.631248Q102.27187 31.631248 102.52187 31.912498Q102.77187 32.178123 102.77187 32.56875Q102.77187 32.959373 102.52187 33.225Q102.27187 33.490623 101.7875 33.490623Q101.31875 33.490623 101.06875 33.225Q100.83437 32.959373 100.83437 32.56875ZM104.39687 39.75625Q104.39687 38.365623 104.94375 37.25625Q105.50625 36.13125 106.475 35.521873Q107.45937 34.9125 108.70937 34.9125Q110.6625 34.9125 111.85 36.25625Q113.05312 37.6 113.05312 39.834373L113.05312 39.94375Q113.05312 41.334373 112.52187 42.44375Q111.99062 43.5375 111.00625 44.1625Q110.02187 44.771873 108.74062 44.771873Q106.80312 44.771873 105.6 43.428123Q104.39687 42.084373 104.39687 39.865623L104.39687 39.75625ZM106.0375 39.94375Q106.0375 41.5375 106.77187 42.490623Q107.50625 43.44375 108.74062 43.44375Q109.975 43.44375 110.69375 42.475Q111.42812 41.50625 111.42812 39.75625Q111.42812 38.19375 110.67812 37.225Q109.94375 36.25625 108.70937 36.25625Q107.50625 36.25625 106.77187 37.209373Q106.0375 38.1625 106.0375 39.94375ZM116.36562 35.084373L116.42812 36.2875Q117.50625 34.9125 119.27187 34.9125Q122.2875 34.9125 122.30312 38.31875L122.30312 44.6L120.67812 44.6L120.67812 38.303123Q120.67812 37.271873 120.20937 36.7875Q119.75625 36.2875 118.77187 36.2875Q117.99062 36.2875 117.38125 36.709373Q116.7875 37.13125 116.45937 37.81875L116.45937 44.6L114.83437 44.6L114.83437 35.084373L116.36562 35.084373ZM130.36563 42.084373Q130.36563 41.4125 129.86563 41.053123Q129.38126 40.69375 128.14688 40.428123Q126.9125 40.1625 126.17812 39.803123Q125.45937 39.428123 125.1 38.9125Q124.75625 38.396873 124.75625 37.69375Q124.75625 36.5375 125.74062 35.725Q126.74062 34.9125 128.27188 34.9125Q129.89688 34.9125 130.89688 35.75625Q131.9125 36.584373 131.9125 37.88125L130.27188 37.88125Q130.27188 37.209373 129.69376 36.740623Q129.13126 36.25625 128.27188 36.25625Q127.38125 36.25625 126.88125 36.646873Q126.38125 37.021873 126.38125 37.646873Q126.38125 38.240623 126.85 38.5375Q127.31875 38.834373 128.5375 39.115623Q129.75626 39.38125 130.50626 39.75625Q131.27188 40.13125 131.63126 40.6625Q131.99063 41.19375 131.99063 41.959373Q131.99063 43.240623 130.975 44.00625Q129.95938 44.771873 128.33438 44.771873Q127.19375 44.771873 126.30312 44.365623Q125.42812 43.959373 124.92812 43.240623Q124.42812 42.521873 124.42812 41.678123L126.06875 41.678123Q126.1 42.490623 126.70937 42.975Q127.33437 43.44375 128.33438 43.44375Q129.25626 43.44375 129.80313 43.06875Q130.36563 42.69375 130.36563 42.084373ZM137.39688 39.75625Q137.39688 38.365623 137.94376 37.25625Q138.50626 36.13125 139.475 35.521873Q140.45938 34.9125 141.70938 34.9125Q143.6625 34.9125 144.85 36.25625Q146.05313 37.6 146.05313 39.834373L146.05313 39.94375Q146.05313 41.334373 145.52188 42.44375Q144.99063 43.5375 144.00626 44.1625Q143.02188 44.771873 141.74063 44.771873Q139.80313 44.771873 138.6 43.428123Q137.39688 42.084373 137.39688 39.865623L137.39688 39.75625ZM139.0375 39.94375Q139.0375 41.5375 139.77188 42.490623Q140.50626 43.44375 141.74063 43.44375Q142.975 43.44375 143.69376 42.475Q144.42813 41.50625 144.42813 39.75625Q144.42813 38.19375 143.67813 37.225Q142.94376 36.25625 141.70938 36.25625Q140.50626 36.25625 139.77188 37.209373Q139.0375 38.1625 139.0375 39.94375ZM148.63126 44.6L148.63126 36.35L147.13126 36.35L147.13126 35.084373L148.63126 35.084373L148.63126 34.115623Q148.63126 32.584373 149.44376 31.756248Q150.27188 30.912498 151.75626 30.912498Q152.31876 30.912498 152.88126 31.068748L152.7875 32.38125Q152.38126 32.303123 151.9125 32.303123Q151.11563 32.303123 150.67813 32.771873Q150.25626 33.225 150.25626 34.084373L150.25626 35.084373L152.2875 35.084373L152.2875 36.35L150.25626 36.35L150.25626 44.6L148.63126 44.6ZM160.02188 37.4125L161.25626 37.4125Q162.39688 37.396873 163.05313 36.803123Q163.725 36.209373 163.725 35.209373Q163.725 32.959373 161.475 32.959373Q160.42813 32.959373 159.7875 33.56875Q159.1625 34.1625 159.1625 35.1625L157.5375 35.1625Q157.5375 33.646873 158.64688 32.646873Q159.77188 31.631248 161.475 31.631248Q163.2875 31.631248 164.31876 32.584373Q165.35 33.5375 165.35 35.240623Q165.35 36.084373 164.80313 36.865623Q164.27188 37.646873 163.33438 38.0375Q164.38126 38.365623 164.95938 39.146873Q165.5375 39.9125 165.5375 41.0375Q165.5375 42.75625 164.4125 43.771873Q163.2875 44.771873 161.475 44.771873Q159.67813 44.771873 158.55313 43.803123Q157.42813 42.81875 157.42813 41.225L159.06876 41.225Q159.06876 42.240623 159.725 42.85Q160.38126 43.44375 161.49063 43.44375Q162.6625 43.44375 163.2875 42.834373Q163.9125 42.225 163.9125 41.06875Q163.9125 39.94375 163.225 39.35Q162.5375 38.75625 161.25626 38.740623L160.02188 38.740623L160.02188 37.4125ZM167.42813 39.771873Q167.42813 37.584373 168.45938 36.25625Q169.50626 34.9125 171.19376 34.9125Q172.86563 34.9125 173.83438 36.053123L173.83438 31.099998L175.45938 31.099998L175.45938 44.6L173.95938 44.6L173.88126 43.584373Q172.9125 44.771873 171.17813 44.771873Q169.52188 44.771873 168.475 43.428123Q167.42813 42.06875 167.42813 39.88125L167.42813 39.771873ZM169.06876 39.94375Q169.06876 41.56875 169.725 42.490623Q170.39688 43.396873 171.56876 43.396873Q173.11563 43.396873 173.83438 42.00625L173.83438 37.63125Q173.1 36.2875 171.6 36.2875Q170.39688 36.2875 169.725 37.225Q169.06876 38.146873 169.06876 39.94375ZM189.86563 39.94375Q189.86563 42.115623 188.86563 43.44375Q187.88126 44.771873 186.17813 44.771873Q184.44376 44.771873 183.45938 43.678123L183.45938 48.25625L181.83438 48.25625L181.83438 35.084373L183.31876 35.084373L183.39688 36.146873Q184.38126 34.9125 186.1625 34.9125Q187.86563 34.9125 188.86563 36.209373Q189.86563 37.490623 189.86563 39.803123L189.86563 39.94375ZM188.24063 39.771873Q188.24063 38.1625 187.55313 37.225Q186.86563 36.2875 185.67813 36.2875Q184.19376 36.2875 183.45938 37.6L183.45938 42.146873Q184.19376 43.44375 185.69376 43.44375Q186.86563 43.44375 187.55313 42.521873Q188.24063 41.6 188.24063 39.771873ZM196.42813 36.553123Q196.05313 36.490623 195.63126 36.490623Q194.02188 36.490623 193.45938 37.85L193.45938 44.6L191.83438 44.6L191.83438 35.084373L193.4125 35.084373L193.44376 36.19375Q194.24063 34.9125 195.70938 34.9125Q196.17813 34.9125 196.42813 35.0375L196.42813 36.553123ZM199.6 44.6L197.975 44.6L197.975 35.084373L199.6 35.084373L199.6 44.6ZM197.83438 32.56875Q197.83438 32.178123 198.06876 31.912498Q198.31876 31.631248 198.7875 31.631248Q199.27188 31.631248 199.52188 31.912498Q199.77188 32.178123 199.77188 32.56875Q199.77188 32.959373 199.52188 33.225Q199.27188 33.490623 198.7875 33.490623Q198.31876 33.490623 198.06876 33.225Q197.83438 32.959373 197.83438 32.56875ZM203.36563 35.084373L203.42813 36.2875Q204.50626 34.9125 206.27188 34.9125Q209.2875 34.9125 209.30313 38.31875L209.30313 44.6L207.67813 44.6L207.67813 38.303123Q207.67813 37.271873 207.20938 36.7875Q206.75626 36.2875 205.77188 36.2875Q204.99063 36.2875 204.38126 36.709373Q203.7875 37.13125 203.45938 37.81875L203.45938 44.6L201.83438 44.6L201.83438 35.084373L203.36563 35.084373ZM214.0375 32.7875L214.0375 35.084373L215.81876 35.084373L215.81876 36.35L214.0375 36.35L214.0375 42.240623Q214.0375 42.81875 214.27188 43.1Q214.50626 43.38125 215.08438 43.38125Q215.36563 43.38125 215.85 43.2875L215.85 44.6Q215.20938 44.771873 214.61563 44.771873Q213.52188 44.771873 212.95938 44.115623Q212.4125 43.459373 212.4125 42.240623L212.4125 36.35L210.67813 36.35L210.67813 35.084373L212.4125 35.084373L212.4125 32.7875L214.0375 32.7875ZM223.36563 42.084373Q223.36563 41.4125 222.86563 41.053123Q222.38126 40.69375 221.14688 40.428123Q219.9125 40.1625 219.17813 39.803123Q218.45938 39.428123 218.1 38.9125Q217.75626 38.396873 217.75626 37.69375Q217.75626 36.5375 218.74063 35.725Q219.74063 34.9125 221.27188 34.9125Q222.89688 34.9125 223.89688 35.75625Q224.9125 36.584373 224.9125 37.88125L223.27188 37.88125Q223.27188 37.209373 222.69376 36.740623Q222.13126 36.25625 221.27188 36.25625Q220.38126 36.25625 219.88126 36.646873Q219.38126 37.021873 219.38126 37.646873Q219.38126 38.240623 219.85 38.5375Q220.31876 38.834373 221.5375 39.115623Q222.75626 39.38125 223.50626 39.75625Q224.27188 40.13125 224.63126 40.6625Q224.99063 41.19375 224.99063 41.959373Q224.99063 43.240623 223.975 44.00625Q222.95938 44.771873 221.33438 44.771873Q220.19376 44.771873 219.30313 44.365623Q218.42813 43.959373 217.92813 43.240623Q217.42813 42.521873 217.42813 41.678123L219.06876 41.678123Q219.1 42.490623 219.70938 42.975Q220.33438 43.44375 221.33438 43.44375Q222.25626 43.44375 222.80313 43.06875Q223.36563 42.69375 223.36563 42.084373Z" fill-rule="nonzero"/></svg>