<?xml version="1.0" encoding="UTF-8" standalone="no"?>
<!-- Created with Inkscape (http://www.inkscape.org/) -->

<svg
   xmlns:dc="http://purl.org/dc/elements/1.1/"
   xmlns:cc="http://creativecommons.org/ns#"
   xmlns:rdf="http://www.w3.org/1999/02/22-rdf-syntax-ns#"
   xmlns:svg="http://www.w3.org/2000/svg"
   xmlns="http://www.w3.org/2000/svg"
   version="1.1"
   width="1200"
   height="1004"
   id="svg2228">
  <defs
     id="defs2230" />
  <metadata
     id="metadata2233">
    <rdf:RDF>
      <cc:Work
         rdf:about="">
        <dc:format>image/svg+xml</dc:format>
        <dc:type
           rdf:resource="http://purl.org/dc/dcmitype/StillImage" />
        <dc:title></dc:title>
      </cc:Work>
    </rdf:RDF>
  </metadata>
  <g
     transform="translate(86.827588,-153.06811)"
     id="layer1">
    <g
       transform="matrix(1.6208876,0,0,1.6208876,-895.07314,-658.24661)"
       id="g2117">
      <path
         d="m 503.96126,623.01909 -2.6587,0 -2.65876,14.05876 2.65876,0 2.6587,-14.05876"
         id="path212"
         style="fill:#0e1522;fill-opacity:1;fill-rule:evenodd;stroke:none" />
      <path
         d="m 515.6675,623.31159 c -0.83123,-0.25131 -1.80749,-0.39626 -2.94999,-0.39626 -5.44121,0 -8.24501,4.645 -8.24501,9.43496 0,2.29126 0.95505,4.91501 5.21256,4.91501 1.20499,0 2.47245,-0.22873 3.53119,-0.56251 l 0.18752,-2.4775 c -0.8725,0.35377 -1.86996,0.58251 -2.90877,0.58251 -2.28371,0 -3.01125,-1.18753 -3.01125,-2.97745 0,-2.7913 1.26755,-6.4988 4.96376,-6.4988 0.8313,0 1.725,0.14504 2.5338,0.43755 l 0.68619,-2.45751"
         id="path214"
         style="fill:#0e1522;fill-opacity:1;fill-rule:evenodd;stroke:none" />
      <path
         d="m 526.17126,623.31159 c -0.83,-0.25131 -1.80626,-0.39626 -2.94876,-0.39626 -5.4412,0 -8.24493,4.645 -8.24493,9.43496 0,2.29126 0.95497,4.91501 5.21248,4.91501 1.20499,0 2.47245,-0.22873 3.53126,-0.56251 l 0.18624,-2.4775 c -0.8725,0.35377 -1.86875,0.58251 -2.90756,0.58251 -2.28372,0 -3.01118,-1.18753 -3.01118,-2.97745 0,-2.7913 1.26748,-6.4988 4.96369,-6.4988 0.8313,0 1.72379,0.14504 2.5338,0.43755 l 0.68496,-2.45751"
         id="path216"
         style="fill:#0e1522;fill-opacity:1;fill-rule:evenodd;stroke:none" />
      <path
         d="m 541.88508,623.31159 c -0.8313,-0.25131 -1.80757,-0.39626 -2.95007,-0.39626 -5.44121,0 -8.24501,4.645 -8.24501,9.43496 0,2.29126 0.95505,4.91501 5.21256,4.91501 1.20499,0 2.47245,-0.22873 3.53119,-0.56251 l 0.18752,-2.4775 c -0.87371,0.35377 -1.86996,0.58251 -2.90877,0.58251 -2.28371,0 -3.01125,-1.18753 -3.01125,-2.97745 0,-2.7913 1.26755,-6.4988 4.96376,-6.4988 0.8313,0 1.72379,0.14504 2.5338,0.43755 l 0.68627,-2.45751"
         id="path218"
         style="fill:#0e1522;fill-opacity:1;fill-rule:evenodd;stroke:none" />
      <path
         d="m 549.1288,626.51906 c -1.78749,-0.29251 -2.90879,1.14503 -4.00879,3.33253 l -0.0425,0 c 0.49874,-1.41625 0.74875,-2.33377 0.89379,-3.125 l -2.51374,0 c -0.20751,1.33369 -0.60127,3.4787 -0.89256,4.93621 l -1.03874,5.41505 2.59628,0 0.43625,-2.24878 c 0.68497,-3.49876 2.49252,-6.22748 4.00871,-5.74875 l 0.5613,-2.56126"
         id="path220"
         style="fill:#0e1522;fill-opacity:1;fill-rule:evenodd;stroke:none" />
      <path
         d="m 554.39376,623.66529 c 0.0213,-0.79124 -0.64376,-1.49994 -1.53625,-1.49994 -0.9137,0 -1.745,0.72869 -1.7662,1.68748 -0.02,0.81252 0.6237,1.54121 1.53748,1.54121 C 553.54256,625.39404 554.37256,624.66535 554.39376,623.66529 z m -0.91376,3.0613 -2.59621,0 -1.9725,10.35126 2.59627,0 1.97244,-10.35126"
         id="path222"
         style="fill:#0e1522;fill-opacity:1;fill-rule:evenodd;stroke:none" />
      <path
         d="m 562.30125,626.78907 c -0.64499,-0.16625 -1.30874,-0.27001 -2.0562,-0.27001 -3.75999,0 -6.08626,3.22754 -6.08626,7.18499 0,2.16629 1.06002,3.58254 3.82125,3.58254 0.89371,0 1.76621,-0.16625 2.47246,-0.41626 l 0.2288,-2.31256 c -0.56129,0.25003 -1.26754,0.39628 -1.93252,0.39628 -1.4125,0 -1.82747,-0.85373 -1.82747,-1.83243 0,-1.93748 0.99747,-4.3538 3.1575,-4.3538 0.62249,0 1.1425,0.105 1.59874,0.3125 l 0.6237,-2.29125"
         id="path224"
         style="fill:#0e1522;fill-opacity:1;fill-rule:evenodd;stroke:none" />
      <path
         d="m 572.80129,627.47655 -2.03499,-1.35375 -4.48624,4.83253 1.72372,-9.08127 -2.59622,0 -2.8875,15.20379 2.59622,0 0.99753,-5.18502 2.18125,5.18502 3.13622,0 -2.74247,-5.58121 4.11248,-4.02009"
         id="path226"
         style="fill:#0e1522;fill-opacity:1;fill-rule:evenodd;stroke:none" />
      <path
         d="m 581.75125,629.03905 c 0,-1.25 -0.78995,-2.51999 -3.34374,-2.51999 -3.22006,0 -5.83625,2.93625 -5.83625,7.26876 0,2.28997 1.03874,3.49877 3.65501,3.49877 1.37123,0 2.72125,-0.22882 3.86253,-0.66628 l 0,-2.04125 c -0.95504,0.39498 -2.01385,0.625 -3.01124,0.625 -1.4325,0 -1.89011,-0.35499 -1.89011,-1.54121 0,-0.23003 0.0426,-0.5838 0.0626,-0.81253 C 579.3,632.72535 581.75125,631.51785 581.75125,629.03905 z m -2.575,0.35377 c 0,1.10383 -1.24747,1.60378 -3.63495,1.68748 0.37378,-1.35376 1.22497,-2.60376 2.575,-2.60376 0.66497,0 1.05995,0.33256 1.05995,0.91628"
         id="path228"
         style="fill:#0e1522;fill-opacity:1;fill-rule:evenodd;stroke:none" />
      <path
         d="m 589.65751,626.72659 -2.45125,0 0.70626,-3.7075 -2.70004,0.54122 -0.60242,3.16628 -1.745,0 -0.41511,2.06245 1.76506,0 -0.93376,4.95628 c -0.47875,2.47872 0.14504,3.54127 2.36755,3.54127 0.64378,0 1.4325,-0.10375 2.11876,-0.2713 l 0.24872,-2.12373 c -0.37377,0.0825 -0.76874,0.14504 -1.28745,0.14504 -0.85129,0 -1.01754,-0.33256 -0.79003,-1.58256 l 0.8725,-4.665 2.42996,0 0.41625,-2.06245"
         id="path230"
         style="fill:#0e1522;fill-opacity:1;fill-rule:evenodd;stroke:none" />
      <path
         d="m 613.49129,623.01909 -2.76253,0 -3.36372,7.85255 c -0.35378,0.87501 -0.68496,1.72866 -0.99746,2.70743 l -0.0201,0 c 0.0626,-0.97877 0.0412,-1.95747 -0.0213,-2.74878 l -0.66499,-7.8112 -2.82386,0 -3.57239,7.85255 c -0.41626,0.89492 -0.72753,1.83242 -1.06002,2.76992 l -0.02,0 c 0.0625,-0.95741 0.10375,-1.91627 0.0625,-2.83241 l -0.43625,-7.79006 -2.69997,0 0.80994,14.05876 3.0938,0 3.48999,-7.81006 c 0.41496,-0.9375 0.74753,-1.85371 1.03874,-2.83249 l 0.02,0 c -0.0612,0.99998 -0.10375,2.00004 -0.0412,2.89505 l 0.53994,7.7475 3.26126,0 6.16752,-14.05876"
         id="path232"
         style="fill:#0e1522;fill-opacity:1;fill-rule:evenodd;stroke:none" />
      <path
         d="m 622.16377,630.28784 c 0,-2.18629 -1.1013,-3.76878 -4.04998,-3.76878 -3.32253,0 -6.21003,2.72759 -6.21003,7.06001 0,2.33247 1.1425,3.70752 4.02878,3.70752 C 619.17251,637.28659 622.16377,634.55777 622.16377,630.28784 z m -2.74125,0.33378 c 0,2.31247 -1.28874,4.37371 -3.13621,4.37371 -1.20506,0 -1.6613,-0.70748 -1.6613,-1.83251 0,-2.06253 1.16249,-4.37378 3.0938,-4.37378 1.20499,0 1.70372,0.64506 1.70372,1.83258"
         id="path234"
         style="fill:#0e1522;fill-opacity:1;fill-rule:evenodd;stroke:none" />
      <path
         d="m 630.38628,626.51906 c -1.78628,-0.29251 -2.90749,1.14503 -4.00872,3.33253 l -0.0412,0 c 0.49752,-1.41625 0.74753,-2.33377 0.89249,-3.125 l -2.51374,0 c -0.20751,1.33369 -0.60126,3.4787 -0.89248,4.93621 l -1.03874,5.41505 2.59621,0 0.43625,-2.24878 c 0.68504,-3.49876 2.49251,-6.22748 4.00871,-5.74875 l 0.56129,-2.56126"
         id="path236"
         style="fill:#0e1522;fill-opacity:1;fill-rule:evenodd;stroke:none" />
      <path
         d="m 635.65133,621.87406 -2.59629,0 -2.88628,15.20379 2.59629,0 2.88628,-15.20379"
         id="path238"
         style="fill:#0e1522;fill-opacity:1;fill-rule:evenodd;stroke:none" />
      <path
         d="m 646.82006,621.87406 -2.61748,0 -0.89379,4.74876 c -0.43625,-0.0625 -0.74753,-0.0838 -1.1,-0.0838 -4.52751,0 -6.62499,3.62504 -6.62499,7.53999 0,2.20756 0.85121,3.22876 2.42996,3.22876 2.05505,0 3.48878,-1.99997 4.31999,-3.51997 l 0.0412,0 c -0.47751,1.43622 -0.81001,2.47749 -0.95496,3.29002 l 2.55371,0 c 0.16624,-0.95757 0.45753,-2.58255 0.66505,-3.7275 L 646.82006,621.87406 z m -3.90502,6.89376 -0.125,0.66628 c -0.41505,2.1875 -2.2638,5.58244 -3.73879,5.58244 -0.51873,0 -0.7888,-0.41619 -0.7888,-1.43747 0,-2.16628 1.1013,-4.95742 3.48876,-4.95742 0.45754,0 0.8313,0.0636 1.16379,0.14617"
         id="path240"
         style="fill:#0e1522;fill-opacity:1;fill-rule:evenodd;stroke:none" />
      <path
         d="m 662.70126,623.31159 c -0.83,-0.25131 -1.80747,-0.39626 -2.94876,-0.39626 -5.4412,0 -8.24623,4.645 -8.24623,9.43496 0,2.29126 0.95619,4.91501 5.21378,4.91501 1.20491,0 2.47124,-0.22873 3.53126,-0.56251 l 0.18616,-2.4775 c -0.87242,0.35377 -1.86997,0.58251 -2.90741,0.58251 -2.28501,0 -3.01125,-1.18753 -3.01125,-2.97745 0,-2.7913 1.26625,-6.4988 4.96376,-6.4988 0.82993,0 1.72372,0.14504 2.53373,0.43755 l 0.68496,-2.45751"
         id="path242"
         style="fill:#0e1522;fill-opacity:1;fill-rule:evenodd;stroke:none" />
      <path
         d="m 672.68745,626.72659 -2.59613,0 -0.49881,2.62496 c -0.45746,2.41501 -2.3262,5.66499 -3.7175,5.66499 -0.66497,0 -0.85121,-0.52124 -0.6237,-1.79124 l 1.24626,-6.49871 -2.59628,0 -1.37002,7.14371 c -0.37497,2.02002 0.22874,3.4375 2.22123,3.4375 1.9738,0 3.4063,-1.6037 4.34127,-3.4575 l 0.0413,0.02 c -0.56006,1.62497 -0.81008,2.58255 -0.91376,3.20755 l 2.53371,0 c 0.20883,-1.24879 0.62379,-3.52005 0.89379,-4.9363 l 1.03866,-5.41496"
         id="path244"
         style="fill:#0e1522;fill-opacity:1;fill-rule:evenodd;stroke:none" />
      <path
         d="m 683.72758,629.72654 c 0,-2.20871 -0.85129,-3.22876 -2.43005,-3.22876 -1.82747,0 -3.28125,1.45752 -4.30001,3.49885 l -0.0412,-0.0213 c 0.51873,-1.60257 0.76874,-2.4363 0.93507,-3.24875 l -2.55501,0 c -0.20752,1.31248 -0.54,3.1662 -0.89249,4.95749 l -1.9738,10.41376 2.59629,0 0.91377,-4.91502 c 0.43625,0.0625 0.74745,0.0825 1.12244,0.0825 C 681.63003,637.2653 683.72758,633.64156 683.72758,629.72654 z m -2.68007,0.50004 c 0,2.16498 -1.1,4.9562 -3.46747,4.9562 -0.37378,0 -0.83123,-0.0838 -1.16371,-0.18745 l 0.125,-0.66628 c 0.41496,-2.14492 2.24251,-5.54001 3.7175,-5.54001 0.49873,0 0.78872,0.41626 0.78872,1.43754"
         id="path246"
         style="fill:#0e1522;fill-opacity:1;fill-rule:evenodd;stroke:none" />
      <path
         d="m 545.98748,645.1853 -2.35993,0 -2.01874,4.8088 c -0.26756,0.65247 -0.5188,1.33621 -0.77133,2.10747 l -0.015,0 c 0.0587,-0.75622 0.0587,-1.49872 0.015,-2.07748 l -0.37117,-4.83879 -2.33002,0 -2.22625,4.92751 c -0.29755,0.68253 -0.52003,1.36498 -0.75753,2.06254 l -0.015,0 c 0.06,-0.72754 0.10388,-1.45371 0.0738,-2.10755 l -0.22247,-4.8825 -2.31499,0 0.51873,10.01876 2.59872,0 2.09251,-4.79377 c 0.31128,-0.71365 0.56382,-1.43998 0.78629,-2.21245 l 0.015,0 c -0.0738,0.83122 -0.10363,1.6037 -0.0738,2.2863 l 0.26626,4.71992 2.76124,0 4.34868,-10.01876"
         id="path248"
         style="fill:#26b9f1;fill-opacity:1;fill-rule:evenodd;stroke:none" />
      <path
         d="m 552.8363,645.1853 -5.52254,0 -1.89995,10.01876 5.52247,0 0.37002,-1.98875 -3.265,0 0.43122,-2.21252 3.08624,0 0.37125,-1.885 -3.1025,0 0.37125,-1.98875 3.2663,0 0.37124,-1.94374"
         id="path250"
         style="fill:#26b9f1;fill-opacity:1;fill-rule:evenodd;stroke:none" />
      <path
         d="m 559.84626,645.14029 c -0.56372,-0.0888 -1.12876,-0.1487 -1.75125,-0.1487 -2.76122,0 -4.11125,1.61872 -4.11125,3.54751 0,2.38999 2.76002,2.36 2.76002,3.6512 0,0.75752 -0.57877,1.17249 -1.69122,1.17249 -0.55,0 -1.1438,-0.11875 -1.64756,-0.3112 l -0.40122,2.15247 c 0.53375,0.11875 1.21748,0.19249 1.91497,0.19249 2.53754,0 4.30381,-1.6175 4.30381,-3.62121 0,-2.42004 -2.77503,-2.46376 -2.77503,-3.76999 0,-0.57876 0.44502,-1.08375 1.58752,-1.08375 0.43121,0 0.95001,0.10375 1.40999,0.25245 l 0.40122,-2.03376"
         id="path252"
         style="fill:#26b9f1;fill-opacity:1;fill-rule:evenodd;stroke:none" />
      <path
         d="m 567.96005,645.1853 -6.96129,0 -0.37125,1.9738 2.34505,0 -1.52877,8.04496 2.25616,0 1.54381,-8.04496 2.34504,0 0.37125,-1.9738"
         id="path254"
         style="fill:#26b9f1;fill-opacity:1;fill-rule:evenodd;stroke:none" />
      <path
         d="m 575.36248,645.1853 -2.25617,0 -1.90002,10.01876 2.25616,0 1.90003,-10.01876"
         id="path256"
         style="fill:#26b9f1;fill-opacity:1;fill-rule:evenodd;stroke:none" />
      <path
         d="m 585.50377,645.1853 -2.1962,0 -0.72753,3.81377 c -0.14749,0.80247 -0.29625,1.7675 -0.38629,2.56875 -0.19249,-0.77248 -0.42999,-1.63255 -0.72624,-2.46376 l -1.43997,-3.91876 -2.6725,0 -1.89873,10.01876 2.1962,0 0.78629,-4.20127 c 0.16372,-0.83115 0.26749,-1.49873 0.35621,-2.26998 0.1638,0.6675 0.37125,1.45378 0.63881,2.21123 l 1.49872,4.26002 2.65625,0 1.91498,-10.01876"
         id="path258"
         style="fill:#26b9f1;fill-opacity:1;fill-rule:evenodd;stroke:none" />
      <path
         d="m 594.77256,648.73281 c 0,-2.45002 -1.5438,-3.60748 -4.20005,-3.60748 -1.18743,0 -2.46376,0.045 -3.23624,0.0888 l -1.90002,9.97497 c 0.89126,0.0451 1.81129,0.0888 3.02879,0.0888 C 592.66503,655.27784 594.77256,652.1166 594.77256,648.73281 z m -2.41873,0.22248 c 0,1.6175 -0.86129,4.3338 -3.56256,4.3338 -0.2375,0 -0.51872,-0.03 -0.72746,-0.0588 l 1.17249,-6.13129 c 0.26749,-0.0288 0.56366,-0.0288 1.03866,-0.0288 1.57379,0 2.07887,0.71251 2.07887,1.885"
         id="path260"
         style="fill:#26b9f1;fill-opacity:1;fill-rule:evenodd;stroke:none" />
      <path
         d="m 599.27498,645.1853 -2.25617,0 -1.90002,10.01876 2.25623,0 1.89995,-10.01876"
         id="path262"
         style="fill:#26b9f1;fill-opacity:1;fill-rule:evenodd;stroke:none" />
      <path
         d="m 606.79001,645.1853 -5.52125,0 -1.89993,10.01876 5.52123,0 0.37125,-1.98875 -3.265,0 0.42999,-2.21252 3.08746,0 0.37125,-1.885 -3.1025,0 0.37125,-1.98875 3.265,0 0.37125,-1.94374"
         id="path264"
         style="fill:#26b9f1;fill-opacity:1;fill-rule:evenodd;stroke:none" />
      <path
         d="m 613.79998,645.14029 c -0.56367,-0.0888 -1.12748,-0.1487 -1.75118,-0.1487 -2.76001,0 -4.11132,1.61872 -4.11132,3.54751 0,2.38999 2.7613,2.36 2.7613,3.6512 0,0.75752 -0.57877,1.17249 -1.69251,1.17249 -0.54871,0 -1.14249,-0.11875 -1.64749,-0.3112 l -0.40123,2.15247 c 0.53498,0.11875 1.21743,0.19249 1.91497,0.19249 2.53877,0 4.30504,-1.6175 4.30504,-3.62121 0,-2.42004 -2.77626,-2.46376 -2.77626,-3.76999 0,-0.57876 0.44495,-1.08375 1.58875,-1.08375 0.43,0 0.95001,0.10375 1.40991,0.25245 l 0.40002,-2.03376"
         id="path266"
         style="fill:#26b9f1;fill-opacity:1;fill-rule:evenodd;stroke:none" />
      <path
         d="m 625.06379,647.35159 c 0,-1.4238 -0.93499,-2.33002 -2.79123,-2.33002 -0.87501,0 -1.88506,0.23758 -2.64129,0.56373 l 0,2.07879 c 0.56374,-0.34249 1.20254,-0.53505 1.90003,-0.53505 0.59371,0 0.95001,0.32631 0.95001,0.81626 0,0.83122 -0.65376,1.79627 -2.70248,3.72627 l -1.63254,1.54374 -0.38628,1.98875 6.08628,0 0.44501,-2.19749 c -1.11251,0 -1.9738,0 -3.02749,0.06 l -0.015,-0.015 0.96505,-0.93499 c 1.15745,-1.12755 2.84996,-2.73125 2.84996,-4.76501"
         id="path268"
         style="fill:#26b9f1;fill-opacity:1;fill-rule:evenodd;stroke:none" />
      <path
         d="m 633.97499,648.3766 c 0,-2.01881 -0.88996,-3.32505 -3.14622,-3.32505 -2.99872,0 -4.98748,3.28004 -4.98748,6.94626 0,2.27128 1.09871,3.35503 3.07251,3.35503 C 632.44629,655.35284 633.97499,651.43415 633.97499,648.3766 z m -2.32994,-0.045 c 0,2.04871 -0.905,5.09124 -2.47879,5.09124 -0.65376,0 -0.99495,-0.44501 -0.99495,-1.39503 0,-1.3662 0.56495,-5.09125 2.49374,-5.09125 0.63874,0 0.98,0.44503 0.98,1.39504"
         id="path270"
         style="fill:#26b9f1;fill-opacity:1;fill-rule:evenodd;stroke:none" />
      <path
         d="m 642.97883,648.3766 c 0,-2.01881 -0.89135,-3.32505 -3.14752,-3.32505 -2.99751,0 -4.98756,3.28004 -4.98756,6.94626 0,2.27128 1.09879,3.35503 3.07251,3.35503 C 641.44882,655.35284 642.97883,651.43415 642.97883,648.3766 z m -2.33132,-0.045 c 0,2.04871 -0.905,5.09124 -2.47872,5.09124 -0.65254,0 -0.9938,-0.44501 -0.9938,-1.39503 0,-1.3662 0.56381,-5.09125 2.49252,-5.09125 0.63882,0 0.98,0.44503 0.98,1.39504"
         id="path272"
         style="fill:#26b9f1;fill-opacity:1;fill-rule:evenodd;stroke:none" />
      <path
         d="m 650.67498,645.1853 -6.11497,0 -0.43121,2.22625 c 1.36628,0 2.9837,-0.03 3.5337,-0.045 -1.11374,1.75125 -2.79121,5.09125 -3.84497,7.83753 l 2.5238,0 c 0.93497,-2.47872 2.43362,-5.64003 3.96247,-8.07503 l 0.37118,-1.94374"
         id="path274"
         style="fill:#26b9f1;fill-opacity:1;fill-rule:evenodd;stroke:none" />
      <path
         d="m 629.08745,612.4053 0,-4.60495 -1.72241,0 0,-0.61752 4.1375,0 0,0.61752 -1.72998,0 0,4.60495 -0.68511,0"
         id="path276"
         style="fill:#0e1522;fill-opacity:1;fill-rule:nonzero;stroke:none" />
      <path
         d="m 632.19001,612.4053 0,-5.22247 1.03753,0 1.24252,3.69751 c 0.1125,0.345 0.19623,0.60118 0.2475,0.77369 0.0612,-0.18875 0.14999,-0.46623 0.27748,-0.83748 l 1.25,-3.63372 0.92751,0 0,5.22247 -0.66627,0 0,-4.36996 -1.51628,4.36996 -0.62247,0 -1.51124,-4.44374 0,4.44374 -0.66628,0"
         id="path278"
         style="fill:#0e1522;fill-opacity:1;fill-rule:nonzero;stroke:none" />
      <path
         d="m 547.74254,521.96279 c 0,0 -4.63875,-13.14994 14.86877,-11.3787 0,0 25.15625,4.86373 47.51999,0.95618 0,0 19.79623,-4.88868 27.16866,0.13002 0,0 -0.86868,7.38127 -3.47366,15.63255 0,0 -4.12499,16.50123 -2.43126,24.08745 2.66876,11.94625 3.16497,11.94755 -0.06,25.52505 0,0 -1.53625,5.09246 0.45998,9.88876 0,0 2.61245,4.42749 5.83748,7.67372 0,0 -10.75249,11.66 -29.03123,9.2987 -10.30379,-1.33117 -27.00133,-5.31371 -44.01252,-2.80493 -5.47126,0.80618 -8.33,2.43872 -13.47626,4.27871 0,0 -2.53624,-9.73878 0.84252,-18.8887 0,0 3.53248,-8.85506 1.42753,-19.35501 0,0 -2.99629,-6.93757 -4.25758,-11.58249 -3.32992,-12.26754 2.30507,-21.65505 -1.07498,-32.5763 l -0.30747,-0.88501"
         id="path280"
         style="fill:#26b9f1;fill-opacity:1;fill-rule:evenodd;stroke:none" />
      <path
         d="m 627.62626,508.73411 c 1.6388,-0.68252 3.265,-1.20002 5.44869,-1.58127 3.64136,-0.5088 4.55261,-0.4663 7.50634,2.8537 0,0 -2.65504,5.42251 -3.93501,9.32 -1.185,3.61 -1.18997,5.47256 -1.69495,9.24506 -0.0751,0.56747 -1.6938,1.12999 -1.6938,1.12999 -0.15252,-3.535 0.71876,-12.5225 1.1113,-14.55001 0.0287,-0.67628 1.31118,-3.15003 0.73248,-3.91252 -2.8675,-2.01247 -3.57123,-0.83998 -3.57123,-0.83998 -1.10253,0.93246 -1.21133,2.20496 -2.54258,0.42121 C 627.68631,509.25909 626.23131,509.31654 627.62626,508.73411 z m -33.385,24.43497 c -1.03875,-0.10126 -1.325,0.17876 -2.46369,-1.99379 -1.03882,-1.97746 -0.72006,-3.40623 -4.12757,-4.97246 -3.54249,-1.6275 -8.1437,-3.52753 -7.46872,-4.7187 0.67627,-1.19255 5.84877,-0.41878 6.21123,-1.23749 0.36126,-0.81886 -1.3375,-1.89255 -4.88624,-2.64755 -5.21881,-1.10879 -9.94994,-2.71126 -2.85126,-4.82125 4.39629,-1.30753 3.84125,-3.14125 -1.08124,-3.19 -3.07251,-0.0312 -6.44248,-1.01005 -6.78748,-3.02376 -0.42878,-2.50129 10.02502,-5.77125 12.25997,-5.96627 11.58128,-1.00997 11.71624,10.86999 12.83005,17.34628 C 596.62629,522.30527 596.07628,533.34905 594.24126,533.16908 z m -7.66121,4.02375 c 0,0 -0.38376,0.13625 -2.83622,0.31501 -4.32131,0.31494 -8.13257,1.73881 -9.62754,0.80871 -0.57877,-0.35995 1.9587,-2.17376 1.6375,-2.97996 -0.32128,-0.80628 -4.68247,2.31621 -6.69252,2.23244 -1.21375,-0.05 -1.0575,-1.2162 1.70754,-3.33374 2.76619,-2.11625 0.51499,-3.36999 -2.42881,-1.13374 -2.94495,2.23748 -6.58494,4.53751 -7.1737,2.6326 -0.59005,-1.90505 2.35749,-4.21509 1.7775,-4.96757 -1.11755,-1.45004 -6.23375,0.41756 -9.23134,2.75871 -3.4449,2.69005 -9.67621,6.48751 -13.39119,4.92752 -2.23251,-0.9375 1.22628,-8.73001 4.37874,-12.91747 1.39504,-1.8538 11.21003,-8.9 22.12128,-8.6438 3.60626,0.085 6.9725,3.27499 9.92996,5.43876 5.07881,3.71635 8.82881,6.7913 12.73506,10.64873 C 590.53749,534.03029 588.36631,536.77282 586.58005,537.19283 z m 10.11001,-6.76499 c 0,0 0.70244,-3.99003 4.42245,-10.8963 3.72003,-6.9075 7.95129,-13.05245 13.04879,-13.43376 5.09873,-0.38247 10.21751,4.13635 12.17248,6.28631 2.11501,2.32506 4.16625,5.31624 4.60753,8.55498 0.87494,6.41626 -3.36501,4.11622 -5.41755,2.0675 -1.58875,-1.58623 -3.23876,-3.30749 -4.84878,-4.84375 -1.19492,-1.13998 -3.29743,-2.58873 -4.0625,-2.17003 -0.90744,0.4963 0.10249,2.31751 1.70631,3.53875 1.09001,0.83 3.0925,3.43002 1.47628,5.28876 -1.20376,1.38626 -4.69627,-0.72746 -5.7888,-1.5612 -1.09246,-0.83381 -2.21748,-0.0825 -1.13251,1.08994 1.75499,1.89628 -0.83496,3.41125 -3.0162,2.23998 -3.47374,-1.86622 -3.9238,-0.25871 -0.98877,1.48125 1.25122,0.74128 0.53497,1.74508 -2.84874,1.74629 -2.22748,10e-4 -4.00505,1.58128 -5.17754,2.59751 -0.5262,0.45624 -0.86494,0.97878 -1.83372,2.04003 -1.56624,1.36992 -2.72003,0.0175 -2.85125,-0.32754 C 595.86502,533.35913 596.69006,530.42784 596.69006,530.42784 z m -23.66127,11.52374 c 6.32119,-2.72377 10.38629,-3.42499 12.78366,-2.50625 2.28883,0.87631 -3.28491,4.89623 -4.57619,6.12998 -1.79496,1.71623 -2.85751,3.44375 -4.86373,7.24252 -1.64757,3.11873 -2.27997,3.2862 -3.20495,1.23496 -0.92378,-2.04994 0.26992,-4.60495 -1.37253,-3.74 -1.26,0.66375 -2.94999,2.56004 -4.86749,7.02132 -1.17256,2.72744 -2.18376,6.56495 -4.20378,5.45869 -2.02127,-1.10626 -3.25623,-6.7762 -1.96,-10.81497 C 563.38379,543.81406 564.11002,545.79534 573.02879,541.95158 z m 37.26372,-0.33249 c -0.065,2.705 -3.04122,5.71251 -5.84251,5.75996 -2.8537,0.0488 -5.8825,-2.42622 -5.78499,-6.36871 l 0.0112,-0.21004 c -0.74501,-0.16876 -1.30378,-0.61371 -1.4988,-1.43501 -0.21743,-0.9137 0.59747,-2.33375 0.59747,-2.33375 0,0 2.55882,-3.62496 5.12008,-4.48998 2.56249,-0.86625 11.52748,-3.28003 15.79377,-3.35373 7.38251,-0.12627 14.42618,3.2312 17.69622,7.82997 5.07623,7.13875 4.66248,16.0038 2.70753,17.51374 -1.58128,1.22131 -5.13879,-4.40995 -6.87753,-7.99623 -1.38122,-2.84751 -2.68249,-5.77751 -4.22622,-5.75751 -1.85249,0.0238 1.26121,7.29874 -1.08002,8.13133 -1.08253,0.38619 -4.75753,-3.84011 -6.87752,-7.04628 -1.22124,-1.84631 -2.61123,-1.96129 -2.57621,-0.006 0.0324,1.78498 0.0688,2.99622 -0.80377,3.405 -0.87127,0.40871 -2.15003,-0.71495 -4.61127,-3.10379 C 611.4888,541.6216 610.8963,541.51906 610.29251,541.61909 z m -26.47498,19.16626 c -0.46128,0.75249 -2.35376,-0.67375 -2.97372,0.36369 -0.42,0.7 -2.36885,-0.21621 -1.89628,-1.00624 0.63873,-1.06872 -1.60874,-1.72119 -1.12625,-2.5837 1.06125,-1.8975 12.22503,-22.40379 12.98248,-23.7963 0.28999,-0.53376 2.16629,-0.13626 3.5575,0.58624 1.45249,0.75378 2.90628,2.06375 2.5338,2.7488 C 596.26251,538.26032 584.41246,559.81154 583.81753,560.78535 z m -6.62125,6.49124 c -0.33379,0.63744 -1.63628,2.64374 -1.93627,3.19373 -0.23995,0.44122 -1.81,-0.35628 -1.8425,-0.96252 1.08505,-1.99371 1.53625,-2.6725 1.875,-3.23745 C 575.5938,565.76657 577.45629,566.77656 577.19628,567.27659 z m 23.75625,20.5275 c 1.43997,1.05125 -2.79999,7.70248 -1.55747,8.49251 1.54374,0.98121 3.65875,2.95249 4.54499,6.94748 1.0337,4.655 4.63996,5.11001 4.23126,6.64001 -0.52627,1.9725 -3.38005,2.155 -4.19251,3.38501 -0.81253,1.22994 -1.32378,2.40371 -3.13873,2.6712 -1.43005,0.21126 -2.89375,0.50499 -2.60757,-0.44876 0.28625,-0.95375 2.40752,-1.66244 3.19,-3.07251 0.78255,-1.40992 0.54001,-1.95122 0.56,-3.01247 0.0188,-1.05995 -6.18996,-9.12002 -8.5112,-9.70992 -1.26625,-0.32258 -1.57875,-2.05758 -1.61499,-2.94129 -0.0325,-0.78751 0.53496,-6.94626 1.315,-8.22121 C 594.04129,587.11279 600.11505,587.19534 600.95253,587.80409 z m 5.74746,-20.44251 c -1.35003,0.94125 -1.04866,6.10001 -1.0637,9.08997 -0.0138,2.49 1.36376,7.38754 -3.97125,9.26124 -4.24751,1.49125 -14.36508,-0.2362 -15.71129,1.81755 -0.36125,0.55245 1.67625,2.23496 0.15129,6.94749 -0.46996,1.45629 -0.48126,4.86747 -0.24001,5.55496 0.34247,0.97755 1.53998,1.96502 1.2838,2.85881 -0.25758,0.89249 -1.40252,1.78619 -3.36137,1.32621 -1.95991,-0.46127 -2.80868,0.0164 -4.21745,0.56504 -1.40998,0.55 -3.06626,0.9375 -3.83126,0.56999 -0.765,-0.36873 -1.74621,-0.66871 -1.08749,-1.19499 0.66002,-0.52506 3.34,-1.2825 4.10499,-1.82504 1.37505,-0.97502 3.14629,-1.90376 2.65755,-4.54123 -0.48881,-2.63749 -0.73127,-7.21627 -1.81625,-10.05502 -0.39627,-1.03751 -0.70374,-5.39375 -0.0512,-6.37122 1.60751,-2.40875 10.39879,-1.36505 13.24998,-2.21756 2.51625,-0.75249 1.93877,-6.57868 0.75126,-7.71744 -1.13503,-1.08879 -5.09873,2.46246 -7.13875,2.20375 -4.58122,-0.57876 -8.23379,-6.87126 -9.43,-7.59003 -3.1675,-1.90498 -1.21125,-4.89372 0.47873,-5.01747 1.33508,-0.0975 3.31879,1.14502 3.5138,2.77496 0.23499,1.9513 3.69499,3.98629 5.46746,4.08256 2.18879,0.11875 6.02371,-2.69377 7.52372,-4.0763 1.99509,-1.83876 6.93635,-1.65123 10.86503,-2.24998 3.82003,-0.58373 12.25127,3.76495 13.34877,7.06497 0.78003,2.34504 -3.70377,9.78249 -4.88,11.6188 -0.22246,0.34623 -1.43127,2.14371 -2.35877,2.36244 -1.17874,0.27879 -3.27622,-0.05 -3.52745,-1.87995 -0.10875,-0.79506 1.27502,-2.36626 2.835,-3.0938 1.86623,-0.8712 2.49001,-5.23994 1.98502,-7.32873 C 611.69633,568.09034 607.97753,566.47031 606.69999,567.36158 z m -5.50118,-15.68748 c 0.2925,0.0825 0.56122,0.17624 0.80872,0.28 0.9925,0.1 1.85622,0.24254 1.94503,0.3437 0.2887,0.32624 -0.12,0.67383 0.29373,1.20125 0.25376,0.32256 0.93628,0.50255 1.34247,0.96878 0.40878,0.46875 -1.3237,1.23375 -0.68878,1.82625 0.44258,0.41252 0.26252,1.41746 -0.34997,1.595 -0.27244,0.0788 -0.60745,0.13001 -0.95748,0.1712 -1.41998,1.99257 -5.37003,3.91381 -7.85873,2.27257 -1.25878,-0.82879 -0.8413,-3.00377 -0.41122,-5.1638 C 595.82382,552.65654 598.9463,551.03414 601.19881,551.6741 z m 21.09245,17.41874 c -0.14373,0.36995 -0.27245,0.645 -0.39131,0.83619 -0.0986,0.15876 -0.25116,0.36254 -0.47867,0.39375 -0.29999,0.0412 -0.44502,-0.22248 -0.49378,-0.33372 -0.0638,-0.14625 -0.1025,-0.33377 -0.13,-0.52497 -0.1075,-0.75004 -0.0762,-1.9638 -0.0825,-2.34626 -0.0188,-1.15502 -1.9075,-1.81878 -1.99249,-1.84624 0,0 -0.17623,-0.06 -0.39871,-0.15 -0.21751,-0.0862 -0.50004,-0.20882 -0.71136,-0.34004 -0.10113,-0.0613 -0.21615,-0.14251 -0.29366,-0.24246 -0.0837,-0.1075 -0.17875,-0.33128 -0.004,-0.53375 0.11375,-0.1313 0.29624,-0.1825 0.44998,-0.21126 0.1625,-0.03 0.39245,-0.0513 0.70748,-0.0562 C 620.12001,563.71405 623.88383,564.98532 622.29126,569.09284 z m -66.01875,-3.6763 c 1.52374,-1.06124 3.19625,0.68253 3.19625,0.68253 -0.07,2.44125 2.45622,18.1137 2.45622,18.1137 1.84257,8.1363 7.44385,16.57875 7.44385,16.57875 0.59119,3.58132 -2.59133,3.4813 -2.59133,3.4813 -4.17,-5.28503 -7.155,-13.76503 -7.155,-13.76503 -1.55625,-4.8912 -2.5737,-10.71625 -3.2087,-15.43373 -0.54504,2.32254 -1.55129,4.70001 -3.0925,7.36878 l -0.1625,0.40496 c 5.08995,14.3 13.15499,23.83255 13.15499,23.83255 -1.34873,4.25872 -2.86752,2.48245 -2.86752,2.48245 -4.49997,-3.57375 -8.67996,-11.08871 -12.01873,-18.61251 -0.25749,3.74 0.23627,7.85255 1.53747,12.64877 1.37879,-0.52742 2.38129,-0.36873 3.99376,-0.44251 l 1.07628,2.435 c -3.30254,0.81124 -4.3013,1.40251 -6.68251,4.05876 0,0 -2.90497,-5.12748 -3.45627,-8.92867 -0.63751,-4.39385 0.13123,-10.13383 1.83502,-13.75634 -3.65128,-8.94249 -5.93879,-16.87874 -5.93879,-16.87874 l 0.44128,-0.72128 c 4.20876,-2.52869 5.56373,0.66376 5.56373,0.66376 0.57251,3.78876 1.46257,7.40005 2.53877,10.77629 1.59873,-5.45624 1.51626,-11.26252 -1.08377,-17.36 -3.48746,-8.18123 -4.23621,-17.54624 -4.69618,-20.36003 1.26495,-1.02371 1.82495,-1.7775 4.13246,-3.63869 0.63751,-0.51506 3.23997,-1.97502 3.9225,-2.13005 -1.30753,3.36754 -2.445,6.13503 -2.45751,7.67624 -0.0538,7.49504 0.9462,9.6225 3.31253,17.72629 C 555.78629,563.3978 556.05629,564.42655 556.27251,565.41654 z m 8.57375,1.2938 0.18128,-2.68632 c 5.40254,-1.95373 4.08875,1.26626 4.08875,1.26626 -0.40497,0.79132 -0.28374,2.80379 -0.28374,2.80379 0.30746,3.83874 2.4762,17.66625 3.96126,23.11875 1.4862,5.45128 3.38249,8.20878 3.38249,8.20878 -2.30873,3.96125 -4.9688,2.00744 -4.9688,2.00744 -0.9362,-2.08374 -1.50619,-3.96995 -1.50619,-3.96995 C 565.45631,584.52031 564.84626,566.71034 564.84626,566.71034 z m 44.46129,-12.08374 c -0.12125,0.29372 -0.2288,0.51124 -0.325,0.66124 -0.0487,0.075 -0.0987,0.14 -0.15374,0.19118 -0.0512,0.0488 -0.12505,0.1025 -0.22255,0.11625 -0.24246,0.0337 -0.34996,-0.18501 -0.38376,-0.27 -0.0449,-0.11625 -0.07,-0.26497 -0.0862,-0.41618 -0.0614,-0.5938 -10e-4,-1.55633 0.005,-1.86005 0.0175,-0.91629 -1.41869,-1.43753 -1.48499,-1.46004 0,0 -0.13373,-0.0475 -0.30495,-0.11875 -0.16501,-0.0687 -0.38131,-0.16624 -0.54252,-0.27 -0.0763,-0.05 -0.16503,-0.115 -0.22376,-0.19501 -0.065,-0.0912 -0.12375,-0.26123 0.008,-0.41252 0.0888,-0.10125 0.2288,-0.14122 0.35003,-0.16495 0.12749,-0.0238 0.30624,-0.0412 0.55123,-0.045 C 607.7813,550.36284 610.65376,551.37906 609.30755,554.6266 z m -63.10126,-33.68256 c 0,0 -0.0275,-1.14875 0,-1.88125 0.075,-1.9175 -0.28748,-2.56997 0.69122,-4.87123 0.69129,-1.62254 5.45379,-6.78879 14.05502,-4.57504 2.29005,0.59007 7.90993,-0.14243 7.90993,-0.14243 0.80635,0.92246 2.36885,2.16995 0.115,2.1762 -2.39998,0.007 -4.6962,0.44251 -8.63868,-0.004 -5.64508,-0.62752 -8.87132,1.32752 -8.60253,4.16878 0.0975,1.02249 0.69123,2.72995 0.69123,2.72995 C 552.42752,518.54529 546.4238,521.64534 546.20629,520.94404 z m 87.91625,35.98 c 1.88126,10.59875 0.63751,10.09757 -2.01874,19.86007 0,0 -0.345,1.17249 -0.46379,2.82371 -0.12125,1.68748 0.0139,3.34497 0.8313,5.37499 1.83999,3.04001 4.785,7.48749 7.30995,10.02876 0,0 -1.41746,2.14127 -2.78121,3.20495 -9.90501,7.72378 -14.63501,8.7513 -23.84873,8.49129 -2.61131,-0.0738 -7.75757,-2.8775 -3.76381,-3.09867 13.57003,0.78995 25.16503,-4.58008 25.16503,-8.89885 0,-2.435 -3.79754,-3.89999 -5.23003,-6.33248 -1.39244,-3.34625 -0.77255,-7.72002 0.22629,-11.21001 3.06999,-12.93625 -3.33634,-23.04749 1.04126,-22.60499 2.61245,0.26375 3.53248,2.36123 3.53248,2.36123"
         id="path282"
         style="fill:#0e1522;fill-opacity:1;fill-rule:nonzero;stroke:none" />
      <path
         d="m 587.62626,532.95279 c -0.15495,-0.31122 -0.51246,-0.72877 -0.51246,-0.72877 -2.03125,-1.79244 -5.86876,-5.37124 -10.72998,-8.92738 -2.36626,-1.73134 -7.49382,-4.66507 -10.37751,-4.76761 -9.76127,-0.34996 -17.84126,5.64507 -19.15634,6.97006 -3.02497,3.04756 -5.47866,8.47748 -2.71247,9.30871 3.09631,0.9288 7.93876,-2.67876 10.94001,-4.50501 3.49625,-2.12624 9.19503,-1.81252 10.09003,-0.65247 0.46371,0.60249 -2.80754,3.20252 -2.33628,4.72625 0.4725,1.52498 3.35251,-1.25998 5.70755,-3.04877 2.35498,-1.79001 7.60499,0.59127 6.77369,0.80635 -0.78499,0.20241 -3.96119,2.93746 -2.98996,2.97745 0.83877,0.035 1.92871,-1.18126 3.2975,-1.26008 1.25496,-0.0725 3.26622,0.71503 3.38997,1.02379 0.25749,0.64499 -2.155,1.77003 -1.69251,2.05879 1.1963,0.7425 2.30004,-0.18883 5.83245,-0.3588 2.37884,-0.11375 5.47508,-1.61125 4.47631,-3.62251"
         id="path284"
         style="fill:#80cc28;fill-opacity:1;fill-rule:evenodd;stroke:none" />
      <path
         d="m 594.20875,530.76284 c 1.08506,-0.91621 0.46006,-10.66879 -0.23376,-14.14001 -1.08619,-5.42755 -1.56998,-14.66873 -10.83496,-13.86124 -1.78872,0.15625 -8.25874,0.96496 -6.20377,3.46496 1.16128,1.41374 3.00378,1.47751 4.67621,2.46003 2.40632,1.41495 3.9888,3.10745 0.65254,4.10247 -4.73625,1.41251 -2.09121,3.35755 -0.26122,3.89504 5.80871,1.7112 8.69751,4.31496 8.40751,4.96994 -0.28878,0.65506 -5.18753,0.0725 -5.72876,1.02631 -0.54,0.95245 3.42498,2.01249 5.97496,3.77495 1.23756,0.85625 1.3575,2.91504 2.09877,4.47624 0.2475,0.52002 0.80124,0.38253 1.45248,-0.16869"
         id="path286"
         style="fill:#80cc28;fill-opacity:1;fill-rule:evenodd;stroke:none" />
      <path
         d="m 597.62756,532.19404 c -0.28503,-1.37245 2.80251,-7.71621 5.62874,-12.96623 2.82745,-5.24872 6.64871,-9.58252 10.52246,-9.87251 3.87375,-0.29 8.90381,2.34877 10.39001,3.98254 1.60874,1.7675 3.8588,3.8575 4.44504,6.27625 0.82001,3.38622 -1.735,2.0562 -3.29506,0.49995 -1.2075,-1.20622 -2.02499,-1.87127 -3.27873,-3.00752 -4.29245,-3.88617 -6.57875,-2.76496 -8.43376,-1.25747 -0.75371,0.86129 0.22499,1.62255 1.25,2.24251 0.895,0.54123 1.97754,2.12754 1.73874,3.83125 -0.23873,1.7025 -2.96494,-0.0188 -4.80995,-0.5075 -1.02256,-0.27122 -1.88508,1.98753 -1.34125,2.34749 1.65375,1.09375 0.30876,2.24631 -2.20749,1.10747 -2.73629,-1.23618 -3.2,1.60004 -0.96877,2.92253 0.95001,0.56372 0.83747,0.71129 -1.73379,0.71372 -1.69373,0 -1.58623,-0.0386 -2.6387,0.51507 -1.12999,0.59371 -3.57499,3.71993 -4.33129,3.79248 -0.45745,0.0437 -0.83244,-0.11375 -0.9362,-0.62003"
         id="path288"
         style="fill:#80cc28;fill-opacity:1;fill-rule:evenodd;stroke:none" />
      <path
         d="m 599.32381,536.94532 c 0,0 2.15499,-2.80502 4.33373,-3.54126 2.1775,-0.73623 11.58622,-2.59376 15.21247,-2.65502 6.27503,-0.1075 11.78749,3.77502 14.49379,7.73123 5.13496,7.50504 5.06753,16.35751 -1.64627,4.37883 -1.31752,-2.35131 -3.56247,-4.39751 -4.87495,-4.42376 -1.99753,-0.04 0.61118,5.48249 -1.37879,6.19126 -0.92003,0.32745 -3.32253,-2.31125 -5.12496,-5.03502 -1.03753,-1.56998 -4.56132,-1.33629 -4.4188,0.1712 0.14245,1.51131 0.0862,2.61002 -0.68253,2.89376 -1.3787,0.5075 -1.01371,-1.46249 -3.10622,-3.49495 -0.63623,-0.61753 -1.40497,-0.33875 -2.19003,0.18622 -0.6237,-1.93503 -2.05871,-3.53377 -4.1687,-3.63753 -3.23875,-0.15999 -5.90751,1.67 -6.79504,3.84887 -1.20125,-0.42137 0.3463,-2.61382 0.3463,-2.61382"
         id="path290"
         style="fill:#80cc28;fill-opacity:1;fill-rule:evenodd;stroke:none" />
      <path
         d="m 573.06755,543.39033 c -6.90125,2.97371 -7.46254,1.44127 -9.49005,7.75749 -1.00373,3.125 -1.49124,6.68503 -0.006,7.49748 1.48498,0.81383 2.22869,-2.00752 3.08998,-4.01252 1.40998,-3.27995 2.99369,-4.11995 3.84872,-4.71619 3.61496,-2.5225 3.17879,-1.55624 3.52379,0.44625 0.29374,1.70501 0.56617,2.80997 1.8412,0.39626 1.55128,-2.93876 2.27631,-4.19631 3.66501,-5.52375 0.99876,-0.95505 5.19005,-3.10631 3.41872,-3.78502 -1.85492,-0.70999 -5,-0.16754 -9.8912,1.94"
         id="path292"
         style="fill:#80cc28;fill-opacity:1;fill-rule:evenodd;stroke:none" />
      <path
         d="m 591.30379,535.5216 c 0,0 -10.84374,19.15749 -11.23124,20.03494 0,0 -1.0025,1.36254 0.86876,2.20001 0,0 2.53495,1.62002 3.6187,-1.09001 l 10.47501,-19.02374 c 0,0 -0.045,-0.60501 -1.68251,-1.92116 0,0 -0.84747,-0.63636 -1.81626,-0.61881 l -0.23246,0.41877"
         id="path294"
         style="fill:#fab20b;fill-opacity:1;fill-rule:evenodd;stroke:none" />
      <path
         d="m 603.07495,556.53654 c 0.0663,0.68375 -3.55118,2.46124 -3.88115,2.61878 -2.61124,0.83123 -2.3513,-1.67251 -2.30872,-1.98875 0.94748,-3.11752 2.87497,-3.94493 4.40619,-3.83498 1.38001,0.0987 1.7675,3.05121 1.78368,3.20495"
         id="path296"
         style="fill:#ed1c24;fill-opacity:1;fill-rule:evenodd;stroke:none" />
      <path
         d="m 576.26251,604.39535 c 0.26375,-0.35377 1.53878,-1.11877 5.12626,-2.44751 l 0.13749,-0.0913 c 0.0362,-0.03 0.0875,-0.0762 0.1487,-0.13755 0.11875,-0.1225 0.2713,-0.30251 0.41511,-0.54871 0.28748,-0.48874 0.53245,-1.22498 0.41871,-2.22878 0.0113,-0.25245 0.10362,-2.32376 -0.009,-4.66247 -0.11875,-2.43378 -0.4612,-5.29495 -1.44119,-6.60629 -0.18754,-0.45998 -1.99754,-5.20745 2.50366,-5.95749 0,0 4.65629,-0.90371 8.41384,-1.34751 0,0 0.26749,-0.0412 0.66246,-0.14 0.39254,-0.0975 0.9163,-0.25245 1.44128,-0.47996 1.00746,-0.43625 2.1862,-1.21254 2.24876,-2.50999 0.0375,-0.1075 0.13245,-0.39376 0.22498,-0.79499 0.11751,-0.51002 0.23369,-1.21627 0.22378,-1.98754 -0.02,-1.54617 -0.55382,-3.40003 -2.63383,-4.43 -0.0288,-0.0137 -0.20118,-0.025 -0.23124,-0.015 0,0 -2.37869,0.80628 -5.79368,1.77628 -0.0689,0.0287 -0.23255,0.11875 -0.53758,0.19127 -0.32248,0.0775 -0.80627,0.13497 -1.42623,0.0412 -1.23375,-0.18631 -3.04749,-0.97626 -5.23246,-3.48755 l -3.10624,-4.33746 c 0.14618,-0.5188 0.47118,-1.24375 0.9475,-0.61379 1.00997,1.33752 4.54497,4.52752 6.03874,5.28748 l 0.13496,0.0325 c 0,0 1.54374,0.009 3.51875,-0.44746 1.95626,-0.45128 4.37379,-1.36872 6.13121,-3.23754 0.10388,-0.0725 0.65629,-0.42625 1.88378,-0.85998 1.41128,-0.49873 3.71253,-1.10001 7.24755,-1.49246 0.17623,-0.004 1.51122,-0.0175 3.49623,0.43495 2.14997,0.48881 5.05998,1.52504 8.08877,3.71001 l 0.095,0.0613 c 0.045,0.0325 0.1125,0.0862 0.18997,0.16877 0.15503,0.16372 0.35629,0.44372 0.50255,0.88873 0.29373,0.89249 0.3775,2.49505 -0.625,5.21623 -0.006,0.02 -1.45126,4.63127 -3.56125,6.66504 -0.49377,0.93376 -4.46999,1.20872 -1.8338,-0.79125 2.64625,-2.00744 3.52753,-4.98627 3.70003,-6.55747 0.16502,-1.50382 0.16746,-3.52501 -1.26252,-4.56505 -1.25,-0.90873 -4.58381,-2.64747 -6.37497,-1.87873 -1.78123,0.765 -2.8788,1.58248 -2.68005,7.39746 0.05,1.44005 0.11375,2.55379 0.1313,3.45749 0.0175,0.90003 -0.0138,1.56502 -0.14625,2.12631 -0.25628,1.08871 -0.90249,1.8512 -2.55249,3.19375 -0.12137,0.0662 -0.77256,0.41244 -1.90629,0.83999 -1.27746,0.48248 -3.16246,1.06628 -5.58746,1.4737 -1.20629,0.20377 -2.21877,0.2613 -3.0838,0.26375 -0.87494,0.001 -1.59996,-0.0549 -2.22244,-0.0787 -1.27251,-0.05 -2.23381,0.025 -3.12256,1.05628 -0.60127,0.69627 -0.67124,1.40748 -0.5362,2.1138 0.065,0.33242 0.17624,0.67368 0.30251,1.02372 0.11363,0.3212 0.23994,0.64995 0.34623,0.99242 0.0213,0.42381 0.21751,4.47633 -0.28504,6.41251 l -0.009,0.0875 c 0,0 0.0337,0.87379 0.12,1.87752 0.0838,0.98373 0.22118,2.15873 0.44243,2.72498 0.16006,0.28878 0.84877,1.67504 -0.23873,1.83252 -0.23125,0.008 -2.88246,0.0987 -3.92997,0.28502 -0.48004,0.0862 -1.4875,0.39498 -2.37503,0.68498 -0.74875,0.24253 -1.41,0.47126 -1.58745,0.53252 -0.33631,0.004 -0.66132,-0.0213 -0.86754,-0.085 l -0.0838,-0.0325"
         id="path298"
         style="fill:#ed1c24;fill-opacity:1;fill-rule:evenodd;stroke:none" />
      <path
         d="m 599.42756,615.38777 c 0.008,-0.02 0.0213,-0.0488 0.0475,-0.09 0.18745,-0.29998 0.76248,-0.84502 2.10503,-1.81754 l 0.0824,-0.09 c 0,0 0.38262,-0.64125 0.74013,-1.44126 0.33996,-0.76126 0.70244,-1.76247 0.59867,-2.48124 0.006,-0.38497 -0.1025,-3.77997 -5.00373,-8.06128 -0.0275,-0.02 -3.91747,-2.86248 -4.81369,-5.2137 0.0275,-0.27879 0.1387,-1.34125 0.25992,-1.8525 0.0364,-0.1538 0.07,-0.48004 0.14757,-0.90126 0.0725,-0.39879 0.18501,-0.88623 0.38367,-1.39244 0.39384,-0.99999 1.11253,-2.04506 2.5,-2.59637 0.54756,-0.16493 3.79128,-1.02622 2.88254,1.43502 -0.14374,0.1825 -0.73128,0.96626 -1.13998,2.01752 -0.46127,1.19003 -0.71625,2.78625 0.25002,4.23751 0.085,0.18373 0.4087,0.62874 1.72996,1.64247 0.26626,0.37635 2.54752,3.63753 3.05504,5.88501 l 0.0338,0.085 c 0,0 0.50117,0.86006 1.16126,1.82129 0.645,0.94001 1.48499,2.04757 2.16622,2.48871 0.28755,0.23124 1.26373,1.12876 0.15625,1.59881 -0.0575,0.01 -0.17625,0.0337 -0.33875,0.0775 -0.22377,0.0626 -0.53627,0.16625 -0.88501,0.33256 -0.69496,0.33249 -1.54746,0.91874 -2.1463,1.93619 -1.08116,1.83625 -3.28491,2.60376 -3.85994,2.42501 -0.0513,-0.0163 -0.0875,-0.0312 -0.1125,-0.045"
         id="path300"
         style="fill:#ed1c24;fill-opacity:1;fill-rule:evenodd;stroke:none" />
      <path
         d="m 545.73127,571.66906 c 0,0 8.67127,27.435 16.85502,34.74503 0,0 1.26502,1.49505 1.75621,-0.625 0,0 -10.09369,-12.51878 -14.39125,-30.01878 0,0 -0.43374,-6.74872 -3.86124,-4.68871 l -0.35873,0.58746"
         id="path302"
         style="fill:#fab20b;fill-opacity:1;fill-rule:evenodd;stroke:none" />
      <path
         d="m 556.39877,569.47653 c 0,0 0.92125,8.2888 3.06999,16.88628 0,0 1.79627,9.4088 7.3687,16.57875 0,0 1.81008,0.71374 1.32759,-2.20252 0,0 -5.31875,-8.69621 -7.00751,-15.29748 0,0 -2.66625,-14.28375 -2.61003,-16.2725 0,0 -0.38749,-2.51503 -1.68876,-1.2275 l -0.45998,1.53497"
         id="path304"
         style="fill:#fab20b;fill-opacity:1;fill-rule:evenodd;stroke:none" />
      <path
         d="m 565.91629,569.01533 c 0,0 1.82876,17.29873 4.375,25.80246 0,0 0.46371,1.53625 1.2275,3.2338 0,0 0.3675,2.2187 2.24876,-1.00876 0,0 -1.11374,-2.64 -2.32376,-7.0813 -1.21003,-4.44123 -3.76999,-16.57624 -3.22503,-19.41124 0,0 -0.26749,-3.09875 -0.26749,-3.98873 0,0 0.99129,-2.66128 -2.05497,-1.16501 l 0.02,3.61878"
         id="path306"
         style="fill:#fab20b;fill-opacity:1;fill-rule:evenodd;stroke:none" />
      <path
         d="m 602.6963,540.61781 c -0.29251,0.32126 -0.63255,0.73623 -0.80124,1.09375 -0.17753,0.37254 -0.47378,1.33376 -0.7138,2.15125 -0.39376,-0.69999 -0.50873,-1.54625 -0.50873,-2.29621 0,-1.63246 1.65001,-4.57756 5.18753,-4.26002 2.28745,0.20622 3.35869,2.9512 2.4012,4.86747 -0.47118,0.94628 -1.12251,2.09504 -2.37121,2.74758 -0.12879,-0.48753 -0.21507,-1.08132 -0.055,-1.50635 0.32624,-0.8725 0.71121,-1.81 0.71121,-1.81 0.0163,-0.0412 -0.005,-0.0925 -0.0449,-0.10988 l -0.94628,-0.40001 c -0.0275,-0.0125 -0.1,0.0264 -0.1,0.0264 -10e-4,10e-4 -0.64872,0.83993 -0.98006,1.87363 -0.2324,0.72006 -0.3724,1.77627 -0.43617,2.34505 -0.51125,-0.0137 -0.89753,-0.0775 -1.23245,-0.1812 0.0625,-0.72631 0.18248,-1.74508 0.41,-2.55134 0.19745,-0.7 0.4612,-1.17622 0.67367,-1.475 0.10625,-0.14999 0.19883,-0.25619 0.26505,-0.32364 0.0637,-0.0664 0.1025,-0.0964 0.1025,-0.0964 0.055,-0.0425 0.05,-0.10363 -0.01,-0.1387 l -0.9037,-0.52749 c -0.025,-0.015 -0.08,-0.009 -0.1,0.0113 0,0 -0.25375,0.23628 -0.54749,0.56"
         id="path308"
         style="fill:#ffffff;fill-opacity:1;fill-rule:nonzero;stroke:none" />
    </g>
  </g>
</svg>
