<?xml version="1.0" encoding="UTF-8"?>
<svg id="Layer_1" data-name="Layer 1" xmlns="http://www.w3.org/2000/svg" viewBox="0 0 48 48">
  <defs>
    <style>
      .cls-1 {
        fill: #fff;
      }
    </style>
  </defs>
  <path class="cls-1" d="M24,0C10.76,0,0,10.76,0,24s10.76,24,24,24,24-10.76,24-24S37.24,0,24,0Zm0,3.69c11.24,0,20.31,9.08,20.31,20.31s-9.07,20.31-20.31,20.31S3.69,35.24,3.69,24,12.76,3.69,24,3.69Zm-9.23,5.54c-1.02,0-1.85,.83-1.85,1.85s.83,1.85,1.85,1.85,1.85-.83,1.85-1.85-.83-1.85-1.85-1.85Zm-1.85,5.53v20.31h3.69V14.77h-3.69Zm7.39,0v20.31h8.31c5.59,0,10.15-4.57,10.15-10.15s-4.57-10.15-10.15-10.15h-8.31Zm3.69,3.69h4.61c3.59,0,6.46,2.87,6.46,6.46s-2.87,6.46-6.46,6.46h-4.61v-12.92Z"/>
</svg>