<svg data-name="Layer 1" xmlns="http://www.w3.org/2000/svg" viewBox="0 0 48 48"><path d="M24 0C10.76 0 0 10.76 0 24s10.76 24 24 24 24-10.76 24-24S37.24 0 24 0Zm0 3.69c11.24 0 20.31 9.08 20.31 20.31S35.24 44.31 24 44.31 3.69 35.24 3.69 24 12.76 3.69 24 3.69Zm-9.23 5.54c-1.02 0-1.85.83-1.85 1.85s.83 1.85 1.85 1.85 1.85-.83 1.85-1.85-.83-1.85-1.85-1.85Zm-1.85 5.53v20.31h3.69v-20.3h-3.69Zm7.39 0v20.31h8.31c5.59 0 10.15-4.57 10.15-10.15S34.2 14.77 28.62 14.77h-8.31ZM24 18.45h4.61c3.59 0 6.46 2.87 6.46 6.46s-2.87 6.46-6.46 6.46H24V18.45Z" style="fill:#fff"/></svg>